<svg width="107" height="32" viewBox="0 0 107 32" fill="none" xmlns="http://www.w3.org/2000/svg">
<g clip-path="url(#clip0_133_129)">
<path d="M102.864 32H4.13611C1.85163 32 0 30.1787 0 27.9321V4.06749C0 1.82091 1.85163 0 4.13611 0H102.864C105.148 0 107 1.82091 107 4.06749V27.9325C107 30.1787 105.148 32 102.864 32Z" fill="black"/>
<path d="M6.64277 13.0751C4.9069 16.037 6.01033 20.5323 7.92981 23.2578C8.88778 24.6208 9.85816 25.8437 11.1865 25.8437C11.2113 25.8437 11.2366 25.8433 11.2623 25.842C11.8867 25.8176 12.3378 25.6287 12.7738 25.446C13.2634 25.2405 13.7703 25.0286 14.5646 25.0286C15.3203 25.0286 15.8024 25.234 16.2686 25.432C16.7285 25.6278 17.2017 25.8302 17.9015 25.8171C19.3979 25.7896 20.3169 24.4699 21.1276 23.3054C21.9738 22.0898 22.3982 20.9096 22.541 20.4582L22.5468 20.4403C22.5743 20.3601 22.5353 20.2728 22.4572 20.2375C22.4572 20.2375 22.4474 20.2332 22.4452 20.2323C22.1818 20.1263 19.8698 19.1175 19.8454 16.3689C19.8228 14.1354 21.5795 12.953 21.9321 12.7384L21.9485 12.728C21.9866 12.704 22.0133 12.6656 22.0226 12.622C22.0314 12.5779 22.0221 12.5326 21.9964 12.4955C20.7839 10.7505 18.9251 10.4875 18.177 10.4561C18.0687 10.4452 17.9565 10.4399 17.8439 10.4399C16.9649 10.4399 16.1231 10.7662 15.4463 11.0287C14.9793 11.2097 14.5761 11.3663 14.2981 11.3663C13.9854 11.3663 13.5796 11.208 13.1104 11.0248C12.4819 10.7797 11.7701 10.5019 11.0166 10.5019C10.9984 10.5019 10.9811 10.5023 10.9638 10.5027C9.21109 10.528 7.5555 11.5137 6.64277 13.0751Z" fill="white"/>
<path d="M18.1783 5.65285C17.1174 5.69515 15.8441 6.33759 15.0835 7.21425C14.4365 7.95046 13.8054 9.17908 13.9717 10.4169C13.9823 10.4945 14.0466 10.5538 14.1256 10.5604C14.1974 10.5656 14.2702 10.5686 14.3429 10.5686C15.3802 10.5686 16.4996 10.0038 17.2642 9.09491C18.0688 8.13539 18.4755 6.90371 18.3526 5.80026C18.3428 5.71347 18.2657 5.64936 18.1783 5.65285Z" fill="white"/>
<path d="M30.3875 5.56787H32.3997C32.9275 5.56787 33.3962 5.67516 33.8051 5.88931C34.2145 6.10346 34.5329 6.40004 34.7605 6.77861C34.988 7.15719 35.1019 7.58722 35.1019 8.06786C35.1019 8.54893 34.988 8.97853 34.7605 9.3571C34.5329 9.73568 34.2145 10.0323 33.8051 10.2464C33.3958 10.4606 32.9275 10.5678 32.3997 10.5678H30.3875V5.56787ZM32.3704 10.2399C32.8401 10.2399 33.2543 10.1483 33.6127 9.96465C33.971 9.78147 34.2469 9.52546 34.4407 9.1966C34.6345 8.86818 34.7312 8.49179 34.7312 8.06786C34.7312 7.64392 34.6341 7.26797 34.4407 6.93911C34.2469 6.6107 33.971 6.35468 33.6127 6.17106C33.2543 5.98788 32.8401 5.89585 32.3704 5.89585H30.7578V10.2394H32.3704V10.2399Z" fill="white"/>
<path d="M36.7837 10.3541C36.4954 10.1923 36.2692 9.96725 36.1047 9.67895C35.9402 9.39066 35.8577 9.06573 35.8577 8.70373C35.8577 8.34173 35.9402 8.0168 36.1047 7.72851C36.2692 7.44022 36.4959 7.2156 36.7837 7.05336C37.072 6.89155 37.3948 6.81042 37.7536 6.81042C38.112 6.81042 38.4353 6.89155 38.7236 7.05336C39.0119 7.21517 39.238 7.44022 39.4026 7.72851C39.5671 8.0168 39.6496 8.34173 39.6496 8.70373C39.6496 9.06573 39.5671 9.39066 39.4026 9.67895C39.238 9.96725 39.0114 10.1923 38.7236 10.3541C38.4353 10.5159 38.112 10.597 37.7536 10.597C37.3948 10.597 37.0715 10.5164 36.7837 10.3541ZM38.5342 10.0754C38.7644 9.94195 38.9458 9.75659 39.0788 9.51802C39.2119 9.27988 39.2784 9.0086 39.2784 8.70373C39.2784 8.39887 39.2119 8.12758 39.0788 7.88945C38.9458 7.65131 38.7639 7.46552 38.5342 7.33206C38.304 7.19859 38.0437 7.13186 37.7532 7.13186C37.4627 7.13186 37.2024 7.19859 36.9722 7.33206C36.742 7.46552 36.5606 7.65131 36.4276 7.88945C36.2945 8.12758 36.228 8.3993 36.228 8.70373C36.228 9.0086 36.2945 9.27988 36.4276 9.51802C36.5606 9.75615 36.7425 9.94195 36.9722 10.0754C37.2024 10.2089 37.4627 10.2756 37.7532 10.2756C38.0437 10.2756 38.304 10.2089 38.5342 10.0754Z" fill="white"/>
<path d="M46.0853 6.83972L44.647 10.5688H44.3055L43.0269 7.33257L41.7412 10.5688H41.4072L39.9689 6.83972H40.3175L41.5815 10.1688L42.8743 6.83972H43.1865L44.4723 10.1614L45.7509 6.83972H46.0853Z" fill="white"/>
<path d="M49.9065 7.21827C50.1824 7.48956 50.3208 7.88034 50.3208 8.38976V10.5687H49.9575V8.41855C49.9575 7.99941 49.8498 7.68059 49.6342 7.46121C49.4187 7.24226 49.1171 7.13279 48.7299 7.13279C48.2842 7.13279 47.9334 7.26363 47.6766 7.52576C47.4198 7.78788 47.2916 8.14028 47.2916 8.58297V10.5687H46.9284V6.8397H47.277V7.647C47.4078 7.38532 47.6025 7.18033 47.862 7.03248C48.121 6.88506 48.4274 6.81091 48.7809 6.81091C49.255 6.81091 49.6302 6.94655 49.9065 7.21827Z" fill="white"/>
<path d="M51.8167 5.26782H52.1799V10.5683H51.8167V5.26782Z" fill="white"/>
<path d="M54.2249 10.3541C53.9366 10.1923 53.7105 9.96725 53.5459 9.67895C53.3814 9.39066 53.2989 9.06573 53.2989 8.70373C53.2989 8.34173 53.3814 8.0168 53.5459 7.72851C53.7105 7.44022 53.9371 7.2156 54.2249 7.05336C54.5132 6.89155 54.8361 6.81042 55.1949 6.81042C55.5532 6.81042 55.8765 6.89155 56.1648 7.05336C56.4531 7.21517 56.6793 7.44022 56.8442 7.72851C57.0088 8.0168 57.0913 8.34173 57.0913 8.70373C57.0913 9.06573 57.0088 9.39066 56.8442 9.67895C56.6797 9.96725 56.4531 10.1923 56.1648 10.3541C55.8765 10.5159 55.5532 10.597 55.1949 10.597C54.8361 10.597 54.5128 10.5164 54.2249 10.3541ZM55.9754 10.0754C56.2052 9.94195 56.387 9.75659 56.5201 9.51802C56.6531 9.27988 56.7196 9.0086 56.7196 8.70373C56.7196 8.39887 56.6531 8.12758 56.5201 7.88945C56.387 7.65131 56.2052 7.46552 55.9754 7.33206C55.7453 7.19859 55.4849 7.13186 55.1944 7.13186C54.9039 7.13186 54.6436 7.19859 54.4134 7.33206C54.1832 7.46552 54.0018 7.65131 53.8688 7.88945C53.7357 8.12758 53.6692 8.3993 53.6692 8.70373C53.6692 9.0086 53.7357 9.27988 53.8688 9.51802C54.0018 9.75615 54.1837 9.94195 54.4134 10.0754C54.6436 10.2089 54.9039 10.2756 55.1944 10.2756C55.4849 10.2756 55.7453 10.2089 55.9754 10.0754Z" fill="white"/>
<path d="M60.563 7.16463C60.815 7.40058 60.9409 7.74688 60.9409 8.20396V10.5683H60.5923V9.90406C60.4712 10.123 60.2943 10.2935 60.0619 10.4148C59.8295 10.536 59.551 10.5971 59.2263 10.5971C58.805 10.5971 58.4719 10.4994 58.2276 10.304C57.9827 10.1086 57.8608 9.85172 57.8608 9.53246C57.8608 9.2228 57.9734 8.97158 58.1987 8.7788C58.424 8.58603 58.7837 8.48964 59.2773 8.48964H60.5777V8.18957C60.5777 7.84196 60.4819 7.57766 60.2907 7.39666C60.0996 7.21566 59.8197 7.12537 59.4516 7.12537C59.1997 7.12537 58.9589 7.16812 58.7287 7.25404C58.4985 7.33996 58.3038 7.45423 58.1437 7.59685L57.9623 7.33952C58.1513 7.17291 58.3788 7.04294 58.6453 6.95004C58.9114 6.85714 59.19 6.81091 59.4809 6.81091C59.9501 6.81091 60.3111 6.92867 60.563 7.16463ZM60.0796 10.0899C60.3 9.9468 60.4659 9.73963 60.5772 9.46835V8.76833H59.2844C58.9114 8.76833 58.6413 8.83506 58.4746 8.96853C58.3074 9.10199 58.224 9.28517 58.224 9.51851C58.224 9.76144 58.3158 9.95334 58.4999 10.0933C58.6839 10.2338 58.9429 10.304 59.2773 10.304C59.5918 10.3044 59.8592 10.2329 60.0796 10.0899Z" fill="white"/>
<path d="M65.8145 5.26782V10.5683H65.4584V9.68947C65.308 9.97994 65.0974 10.2037 64.8264 10.3611C64.555 10.5181 64.2476 10.5971 63.9039 10.5971C63.5504 10.5971 63.2307 10.516 62.9451 10.3542C62.6594 10.1923 62.4355 9.9686 62.2731 9.68249C62.1108 9.39681 62.0297 9.07058 62.0297 8.70378C62.0297 8.33698 62.1108 8.00987 62.2731 7.72158C62.4355 7.43328 62.6594 7.20954 62.9451 7.04991C63.2307 6.89028 63.5504 6.81047 63.9039 6.81047C64.2427 6.81047 64.547 6.88898 64.8157 7.04642C65.0845 7.20344 65.2965 7.42282 65.4513 7.7037V5.26782H65.8145ZM64.7071 10.0755C64.9368 9.94199 65.1187 9.75663 65.2517 9.51806C65.3848 9.27992 65.4513 9.00864 65.4513 8.70378C65.4513 8.39891 65.3848 8.12763 65.2517 7.88949C65.1187 7.65136 64.9368 7.46556 64.7071 7.3321C64.4769 7.19864 64.2166 7.13191 63.9261 7.13191C63.6356 7.13191 63.3753 7.19864 63.1451 7.3321C62.9149 7.46556 62.7335 7.65136 62.6005 7.88949C62.4674 8.12763 62.4009 8.39935 62.4009 8.70378C62.4009 9.00864 62.4674 9.27992 62.6005 9.51806C62.7335 9.7562 62.9153 9.94199 63.1451 10.0755C63.3753 10.2089 63.6356 10.2756 63.9261 10.2756C64.2166 10.2756 64.4769 10.2089 64.7071 10.0755Z" fill="white"/>
<path d="M69.7263 10.3541C69.438 10.1923 69.2118 9.96725 69.0473 9.67895C68.8827 9.39066 68.8002 9.06573 68.8002 8.70373C68.8002 8.34173 68.8827 8.0168 69.0473 7.72851C69.2118 7.44022 69.4384 7.2156 69.7263 7.05336C70.0145 6.89155 70.3374 6.81042 70.6962 6.81042C71.0546 6.81042 71.3779 6.89155 71.6661 7.05336C71.9544 7.21517 72.1806 7.44022 72.3456 7.72851C72.5101 8.0168 72.5926 8.34173 72.5926 8.70373C72.5926 9.06573 72.5101 9.39066 72.3456 9.67895C72.1811 9.96725 71.9544 10.1923 71.6661 10.3541C71.3779 10.5159 71.0546 10.597 70.6962 10.597C70.3379 10.597 70.0145 10.5164 69.7263 10.3541ZM71.4772 10.0754C71.707 9.94195 71.8888 9.75659 72.0218 9.51802C72.1549 9.27988 72.2214 9.0086 72.2214 8.70373C72.2214 8.39887 72.1549 8.12758 72.0218 7.88945C71.8888 7.65131 71.707 7.46552 71.4772 7.33206C71.247 7.19859 70.9867 7.13186 70.6962 7.13186C70.4057 7.13186 70.1454 7.19859 69.9152 7.33206C69.685 7.46552 69.5036 7.65131 69.3706 7.88945C69.2375 8.12758 69.171 8.3993 69.171 8.70373C69.171 9.0086 69.2375 9.27988 69.3706 9.51802C69.5036 9.75615 69.6855 9.94195 69.9152 10.0754C70.1454 10.2089 70.4057 10.2756 70.6962 10.2756C70.9867 10.2756 71.247 10.2089 71.4772 10.0754Z" fill="white"/>
<path d="M76.6963 7.21827C76.9722 7.48956 77.1106 7.88034 77.1106 8.38976V10.5687H76.7473V8.41855C76.7473 7.99941 76.6396 7.68059 76.424 7.46121C76.2085 7.24226 75.9069 7.13279 75.5197 7.13279C75.074 7.13279 74.7232 7.26363 74.4664 7.52576C74.2096 7.78788 74.0814 8.14028 74.0814 8.58297V10.5687H73.7182V6.8397H74.0668V7.647C74.1976 7.38532 74.3923 7.18033 74.6518 7.03248C74.9108 6.88506 75.2172 6.81091 75.5707 6.81091C76.0448 6.81091 76.4205 6.94655 76.6963 7.21827Z" fill="white"/>
<path d="M82.355 10.3328C82.2627 10.4187 82.1479 10.4841 82.0099 10.529C81.872 10.5744 81.7279 10.5971 81.5775 10.5971C81.248 10.5971 80.9939 10.5077 80.8147 10.3293C80.6355 10.1509 80.5459 9.90185 80.5459 9.58259V7.14672H79.8488V6.83967H80.5459V6.02539H80.9092V6.83967H82.1151V7.14672H80.9092V9.54727C80.9092 9.7902 80.9686 9.97469 81.087 10.1007C81.2054 10.2268 81.3811 10.29 81.6139 10.29C81.8512 10.29 82.0472 10.2211 82.2024 10.0829L82.355 10.3328Z" fill="white"/>
<path d="M86.343 7.21827C86.6189 7.48955 86.7572 7.88033 86.7572 8.38975V10.5687H86.394V8.41854C86.394 7.9994 86.2862 7.68058 86.0707 7.4612C85.8551 7.24225 85.5536 7.13278 85.1664 7.13278C84.7207 7.13278 84.3699 7.26362 84.1131 7.52575C83.8563 7.78787 83.7281 8.14028 83.7281 8.58296V10.5687H83.3649V5.26782H83.7281V7.61821C83.8589 7.36088 84.0523 7.16244 84.3091 7.02156C84.5659 6.88112 84.8683 6.81091 85.2169 6.81091C85.6919 6.81091 86.0671 6.94655 86.343 7.21827Z" fill="white"/>
<path d="M91.4641 8.78972H88.2026C88.2123 9.0802 88.2873 9.33883 88.4279 9.56475C88.5684 9.79111 88.7583 9.96601 88.9982 10.0899C89.2381 10.2137 89.5078 10.2757 89.808 10.2757C90.0551 10.2757 90.2839 10.2316 90.4946 10.1435C90.7052 10.0554 90.8809 9.92545 91.021 9.75404L91.2317 9.98956C91.0671 10.185 90.86 10.335 90.6108 10.4397C90.3615 10.5443 90.0914 10.5967 89.8009 10.5967C89.4231 10.5967 89.0865 10.5156 88.7911 10.3537C88.4957 10.1919 88.2642 9.96819 88.0974 9.68208C87.9302 9.3964 87.8469 9.07016 87.8469 8.70337C87.8469 8.34137 87.9254 8.01644 88.0828 7.72815C88.2402 7.43985 88.4571 7.21524 88.733 7.05299C89.0088 6.89118 89.3188 6.81006 89.6626 6.81006C90.0063 6.81006 90.315 6.88987 90.5886 7.0495C90.8622 7.20913 91.0778 7.43157 91.2352 7.71724C91.3927 8.00292 91.4712 8.32697 91.4712 8.68897L91.4641 8.78972ZM88.9436 7.30029C88.7303 7.41717 88.5596 7.58116 88.4314 7.79313C88.3032 8.0051 88.2292 8.24454 88.2097 8.51103H91.1155C91.1008 8.24454 91.0281 8.00641 90.8977 7.79662C90.7669 7.58727 90.5948 7.42284 90.3819 7.30378C90.1686 7.18471 89.9291 7.12539 89.6626 7.12539C89.3965 7.12539 89.1565 7.18384 88.9436 7.30029Z" fill="white"/>
<path d="M35.7654 21.6232H31.4204L30.564 23.6007H28.9005L32.8108 15.0553H34.3999L38.3227 23.6007H36.6343L35.7654 21.6232ZM35.2319 20.378L33.5932 16.6424L31.9668 20.378H35.2319Z" fill="white"/>
<path d="M44.6847 17.4236C45.1939 17.7006 45.593 18.0909 45.8826 18.5956C46.1723 19.1002 46.3173 19.682 46.3173 20.3414C46.3173 21.0005 46.1723 21.5849 45.8826 22.0934C45.593 22.602 45.1934 22.995 44.6847 23.2715C44.1756 23.5484 43.5986 23.6867 42.9529 23.6867C42.0592 23.6867 41.3514 23.3936 40.8303 22.8079V25.9699H39.2784V17.0821H40.7558V17.9365C41.0121 17.6273 41.3288 17.3953 41.7053 17.2405C42.0818 17.0861 42.4978 17.0084 42.9529 17.0084C43.5986 17.0089 44.176 17.1471 44.6847 17.4236ZM44.1885 21.8187C44.5566 21.4445 44.7411 20.9521 44.7411 20.3414C44.7411 19.7308 44.557 19.2389 44.1885 18.8642C43.8199 18.49 43.3507 18.3025 42.7795 18.3025C42.4069 18.3025 42.0721 18.3862 41.774 18.5528C41.476 18.7199 41.2401 18.958 41.0666 19.2672C40.8928 19.5764 40.8059 19.9345 40.8059 20.3414C40.8059 20.7484 40.8928 21.1064 41.0666 21.4157C41.2405 21.7249 41.4764 21.963 41.774 22.1301C42.0721 22.2971 42.4069 22.3804 42.7795 22.3804C43.3502 22.3804 43.8199 22.1933 44.1885 21.8187Z" fill="white"/>
<path d="M53.2009 17.4236C53.71 17.7006 54.1091 18.0909 54.3988 18.5956C54.6884 19.1002 54.8334 19.682 54.8334 20.3414C54.8334 21.0005 54.6884 21.5849 54.3988 22.0934C54.1091 22.602 53.7096 22.995 53.2009 23.2715C52.6917 23.5484 52.1147 23.6867 51.469 23.6867C50.5753 23.6867 49.8675 23.3936 49.3464 22.8079V25.9699H47.7946V17.0821H49.2719V17.9365C49.5282 17.6273 49.8449 17.3953 50.2214 17.2405C50.5979 17.0861 51.0139 17.0084 51.469 17.0084C52.1143 17.0089 52.6917 17.1471 53.2009 17.4236ZM52.7041 21.8187C53.0722 21.4445 53.2567 20.9521 53.2567 20.3414C53.2567 19.7308 53.0727 19.2389 52.7041 18.8642C52.3356 18.49 51.8664 18.3025 51.2951 18.3025C50.9226 18.3025 50.5877 18.3862 50.2897 18.5528C49.9917 18.7199 49.7557 18.958 49.5823 19.2672C49.4085 19.5764 49.3215 19.9345 49.3215 20.3414C49.3215 20.7484 49.4085 21.1064 49.5823 21.4157C49.7562 21.7249 49.9921 21.963 50.2897 22.1301C50.5877 22.2971 50.9226 22.3804 51.2951 22.3804C51.8664 22.3804 52.3356 22.1933 52.7041 21.8187Z" fill="white"/>
<path d="M60.6362 23.4424C60.0113 23.2553 59.5168 23.0072 59.1527 22.6979L59.7115 21.4649C60.0672 21.7419 60.5041 21.9674 61.0212 22.1423C61.5383 22.3176 62.0577 22.4048 62.5792 22.4048C63.2245 22.4048 63.7066 22.3032 64.0255 22.0995C64.3439 21.8963 64.5036 21.6276 64.5036 21.294C64.5036 21.0497 64.4144 20.8482 64.2366 20.6895C64.0587 20.5307 63.833 20.4069 63.5602 20.317C63.287 20.2276 62.9149 20.126 62.4431 20.0117C61.7809 19.8573 61.2452 19.7025 60.8354 19.5476C60.4256 19.3933 60.0739 19.1508 59.7803 18.8215C59.4862 18.4917 59.3394 18.0464 59.3394 17.4847C59.3394 17.0128 59.4698 16.5836 59.7306 16.1967C59.9914 15.8103 60.3843 15.5028 60.9099 15.2752C61.4354 15.0475 62.0785 14.9332 62.8404 14.9332C63.37 14.9332 63.8915 14.9986 64.4047 15.1286C64.9178 15.259 65.3604 15.4461 65.733 15.6904L65.2238 16.9234C64.8429 16.7035 64.4459 16.5369 64.0321 16.4227C63.6183 16.3088 63.217 16.2517 62.828 16.2517C62.1907 16.2517 61.717 16.3577 61.4066 16.5692C61.0961 16.7807 60.9409 17.0616 60.9409 17.4114C60.9409 17.6556 61.0296 17.855 61.2079 18.0094C61.3857 18.1642 61.6115 18.2863 61.8842 18.3757C62.1574 18.4656 62.5295 18.5672 63.0014 18.681C63.6472 18.8276 64.1767 18.9802 64.5905 19.139C65.0043 19.2977 65.3582 19.5398 65.6518 19.8652C65.9454 20.191 66.0926 20.6302 66.0926 21.1836C66.0926 21.6555 65.9623 22.083 65.7015 22.4655C65.4407 22.848 65.0455 23.1533 64.516 23.3809C63.9864 23.6086 63.3407 23.7229 62.5792 23.7229C61.9086 23.7233 61.2611 23.6295 60.6362 23.4424Z" fill="white"/>
<path d="M71.5295 23.2471C71.3472 23.3936 71.1259 23.5035 70.8656 23.5768C70.6048 23.6501 70.3298 23.6867 70.0402 23.6867C69.312 23.6867 68.7492 23.4996 68.3518 23.1249C67.9544 22.7507 67.7557 22.2055 67.7557 21.489V18.3513H66.6634V17.1306H67.7557V15.6411H69.3076V17.1306H71.0829V18.3513H69.3076V21.4523C69.3076 21.7698 69.3861 22.0119 69.5435 22.1785C69.7005 22.3455 69.9285 22.4288 70.226 22.4288C70.5738 22.4288 70.8634 22.3394 71.0949 22.1602L71.5295 23.2471Z" fill="white"/>
<path d="M73.7515 23.2593C73.2135 22.9745 72.7935 22.5776 72.4915 22.069C72.1894 21.5605 72.0382 20.9848 72.0382 20.3414C72.0382 19.6986 72.189 19.125 72.4915 18.62C72.7935 18.1154 73.2135 17.7206 73.7515 17.4358C74.2894 17.151 74.8935 17.0084 75.5641 17.0084C76.2426 17.0084 76.8507 17.151 77.3891 17.4358C77.927 17.7206 78.347 18.1154 78.6491 18.62C78.9511 19.1246 79.1023 19.6986 79.1023 20.3414C79.1023 20.9843 78.9511 21.5605 78.6491 22.069C78.347 22.5776 77.927 22.9745 77.3891 23.2593C76.8511 23.5441 76.2426 23.6867 75.5641 23.6867C74.8935 23.6867 74.2894 23.5441 73.7515 23.2593ZM76.9793 21.8187C77.3518 21.4445 77.5381 20.9521 77.5381 20.3414C77.5381 19.7308 77.3518 19.2389 76.9793 18.8642C76.6067 18.49 76.1353 18.3025 75.5641 18.3025C74.9928 18.3025 74.5232 18.4896 74.155 18.8642C73.7865 19.2384 73.6024 19.7308 73.6024 20.3414C73.6024 20.9521 73.7865 21.4445 74.155 21.8187C74.5232 22.1929 74.9928 22.3804 75.5641 22.3804C76.1348 22.3804 76.6067 22.1933 76.9793 21.8187Z" fill="white"/>
<path d="M84.4275 17.0088V18.4616C84.2949 18.4372 84.1751 18.425 84.0674 18.425C83.4633 18.425 82.9914 18.5981 82.6521 18.944C82.3129 19.2898 82.143 19.7883 82.143 20.4395V23.6016H80.5912V17.0821H82.0685V18.0342C82.5155 17.3503 83.3019 17.0088 84.4275 17.0088Z" fill="white"/>
<path d="M91.8881 20.8299H86.6867C86.7776 21.3101 87.0157 21.6904 87.4003 21.9713C87.7852 22.2522 88.2629 22.3926 88.8341 22.3926C89.5623 22.3926 90.1624 22.1567 90.6343 21.6848L91.4659 22.6247C91.1678 22.9749 90.7913 23.2392 90.3362 23.418C89.8812 23.5973 89.3681 23.6867 88.7969 23.6867C88.0686 23.6867 87.4269 23.5445 86.8725 23.2593C86.3181 22.9745 85.8897 22.5776 85.5877 22.069C85.2856 21.5605 85.1344 20.9848 85.1344 20.3414C85.1344 19.7064 85.2812 19.1351 85.5752 18.6261C85.8688 18.1175 86.2764 17.7206 86.798 17.4358C87.3195 17.151 87.9067 17.0084 88.5609 17.0084C89.2062 17.0084 89.7836 17.1489 90.2928 17.4297C90.8019 17.7106 91.1989 18.1053 91.4845 18.6139C91.7701 19.1224 91.9129 19.7108 91.9129 20.3781C91.9129 20.4841 91.9049 20.6345 91.8881 20.8299ZM87.3014 18.6627C86.9576 18.9519 86.7487 19.3361 86.6747 19.8163H90.436C90.3695 19.3444 90.1668 18.9619 89.8276 18.6688C89.4883 18.3757 89.0661 18.2292 88.5613 18.2292C88.0646 18.2296 87.6446 18.374 87.3014 18.6627Z" fill="white"/>
</g>
<defs>
<clipPath id="clip0_133_129">
<rect width="107" height="32" fill="white"/>
</clipPath>
</defs>
</svg>
