<svg width="36" height="24" viewBox="0 0 36 24" fill="none" xmlns="http://www.w3.org/2000/svg">
<rect width="36" height="24" rx="2" fill="#222222"/>
<path d="M9.21372 7.78073C8.88916 8.16479 8.36987 8.46771 7.85058 8.42444C7.78567 7.90515 8.03991 7.3534 8.33742 7.01262C8.66197 6.61774 9.22995 6.33646 9.68974 6.31482C9.74383 6.85575 9.53287 7.38586 9.21372 7.78073ZM9.68433 8.52721C8.93244 8.48394 8.28873 8.95455 7.93172 8.95455C7.5693 8.95455 7.02296 8.54885 6.42794 8.55967C5.65441 8.57049 4.93498 9.00864 4.5401 9.70644C3.72871 11.102 4.32914 13.1684 5.11349 14.3043C5.49755 14.8669 5.95733 15.4835 6.56317 15.4619C7.13656 15.4403 7.36375 15.0887 8.05613 15.0887C8.75393 15.0887 8.95407 15.4619 9.55991 15.4511C10.1874 15.4403 10.5823 14.8885 10.9663 14.326C11.4045 13.6877 11.583 13.0656 11.5938 13.0331C11.583 13.0223 10.3821 12.5625 10.3713 11.1778C10.3605 10.0202 11.3179 9.46843 11.3612 9.43597C10.8203 8.6354 9.97643 8.54885 9.68433 8.52721ZM14.028 6.95852V15.3916H15.337V12.5084H17.1491C18.8044 12.5084 19.9674 11.3725 19.9674 9.72807C19.9674 8.08365 18.826 6.95852 17.1924 6.95852H14.028ZM15.337 8.06202H16.8462C17.9822 8.06202 18.6313 8.66786 18.6313 9.73348C18.6313 10.7991 17.9822 11.4104 16.8408 11.4104H15.337V8.06202ZM22.3583 15.4565C23.1805 15.4565 23.9432 15.04 24.2894 14.3801H24.3164V15.3916H25.5281V11.194C25.5281 9.9769 24.5544 9.19255 23.0561 9.19255C21.6659 9.19255 20.6381 9.98772 20.6002 11.0804H21.7795C21.8768 10.5611 22.3583 10.2203 23.0182 10.2203C23.8188 10.2203 24.2677 10.5936 24.2677 11.2805V11.7457L22.6341 11.8431C21.1141 11.9351 20.2919 12.5571 20.2919 13.639C20.2919 14.7317 21.1412 15.4565 22.3583 15.4565ZM22.7099 14.4558C22.0121 14.4558 21.5685 14.1204 21.5685 13.6065C21.5685 13.0764 21.9958 12.7681 22.8126 12.7194L24.2677 12.6274V13.1035C24.2677 13.8932 23.597 14.4558 22.7099 14.4558ZM27.1455 17.6851C28.4221 17.6851 29.0225 17.1983 29.5472 15.7216L31.8461 9.27369H30.5155L28.9738 14.2556H28.9468L27.4051 9.27369H26.0366L28.2544 15.4132L28.1354 15.7865C27.9352 16.4193 27.6107 16.6628 27.0319 16.6628C26.9291 16.6628 26.729 16.6519 26.6478 16.6411V17.6527C26.7235 17.6743 27.0481 17.6851 27.1455 17.6851Z" fill="white"/>
</svg>
