<svg width="107" height="32" viewBox="0 0 107 32" fill="none" xmlns="http://www.w3.org/2000/svg">
<g clip-path="url(#clip0_133_59)">
<path d="M102.864 32H4.13611C1.85163 32 0 30.1787 0 27.9321V4.06749C0 1.82091 1.85163 0 4.13611 0H102.864C105.148 0 107 1.82091 107 4.06749V27.9325C107 30.1787 105.148 32 102.864 32Z" fill="black"/>
<path d="M33.2752 9.16133H30.3259L29.6792 10.5688H29.2796L31.6187 5.56836H31.989L34.328 10.5688H33.9284L33.2752 9.16133ZM33.1372 8.85428L31.8005 5.9683L30.4713 8.85428H33.1372Z" fill="white"/>
<path d="M37.99 6.83972L36.2755 10.5688H35.9051L34.1981 6.83972H34.583L36.0941 10.1758L37.6197 6.83972H37.99Z" fill="white"/>
<path d="M41.0263 7.16456C41.2782 7.40051 41.4041 7.74681 41.4041 8.20389V10.5687H41.0555V9.90442C40.9345 10.1234 40.7575 10.2939 40.5251 10.4152C40.2927 10.5364 40.0142 10.5975 39.6896 10.5975C39.2682 10.5975 38.9352 10.4998 38.6908 10.3044C38.446 10.109 38.324 9.85209 38.324 9.53283C38.324 9.22317 38.4367 8.97195 38.662 8.77917C38.8873 8.58639 39.2469 8.49 39.7406 8.49H41.0409V8.18994C41.0409 7.84233 40.9451 7.57802 40.754 7.39702C40.5628 7.21602 40.283 7.12574 39.9149 7.12574C39.6629 7.12574 39.4221 7.16848 39.1919 7.2544C38.9618 7.34033 38.7671 7.4546 38.607 7.59721L38.4256 7.33989C38.6145 7.17328 38.842 7.04331 39.1086 6.95041C39.3747 6.85751 39.6532 6.81128 39.9441 6.81128C40.4138 6.81084 40.7744 6.9286 41.0263 7.16456ZM40.5433 10.0898C40.7637 9.94673 40.9296 9.73956 41.0409 9.46828V8.76827H39.7476C39.3747 8.76827 39.1046 8.835 38.9378 8.96846C38.7706 9.10192 38.6872 9.2851 38.6872 9.51844C38.6872 9.76137 38.779 9.95327 38.9631 10.0937C39.1471 10.2342 39.4062 10.3044 39.7406 10.3044C40.0554 10.3039 40.3229 10.2328 40.5433 10.0898Z" fill="white"/>
<path d="M42.8717 5.85004C42.8136 5.79552 42.7843 5.72748 42.7843 5.64636C42.7843 5.56524 42.8136 5.49633 42.8717 5.43919C42.9298 5.38206 42.9998 5.35327 43.0823 5.35327C43.1648 5.35327 43.2349 5.38075 43.293 5.43527C43.3511 5.49022 43.3804 5.55782 43.3804 5.63895C43.3804 5.72007 43.3511 5.78898 43.293 5.84612C43.2349 5.90325 43.1648 5.93204 43.0823 5.93204C42.9998 5.93204 42.9298 5.905 42.8717 5.85004ZM42.9005 6.83966H43.2637V10.5687H42.9005V6.83966Z" fill="white"/>
<path d="M44.7965 5.26782H45.1597V10.5683H44.7965V5.26782Z" fill="white"/>
<path d="M49.0532 7.16456C49.3051 7.40051 49.4311 7.74681 49.4311 8.20389V10.5687H49.0825V9.90442C48.9614 10.1234 48.7845 10.2939 48.5521 10.4152C48.3197 10.5364 48.0411 10.5975 47.7165 10.5975C47.2952 10.5975 46.9621 10.4998 46.7177 10.3044C46.4729 10.109 46.351 9.85209 46.351 9.53283C46.351 9.22317 46.4636 8.97195 46.6889 8.77917C46.9142 8.58639 47.2739 8.49 47.7675 8.49H49.0679V8.18994C49.0679 7.84233 48.9721 7.57802 48.7809 7.39702C48.5898 7.21602 48.3099 7.12574 47.9418 7.12574C47.6899 7.12574 47.4491 7.16848 47.2189 7.2544C46.9887 7.34033 46.794 7.4546 46.6339 7.59721L46.4525 7.33989C46.6414 7.17328 46.869 7.04331 47.1355 6.95041C47.4016 6.85751 47.6801 6.81128 47.9711 6.81128C48.4403 6.81084 48.8013 6.9286 49.0532 7.16456ZM48.5702 10.0898C48.7907 9.94673 48.9565 9.73956 49.0679 9.46828V8.76827H47.7746C47.4016 8.76827 47.1315 8.835 46.9648 8.96846C46.7976 9.10192 46.7142 9.2851 46.7142 9.51844C46.7142 9.76137 46.806 9.95327 46.99 10.0937C47.1741 10.2342 47.4331 10.3044 47.7675 10.3044C48.0819 10.3039 48.3498 10.2328 48.5702 10.0898Z" fill="white"/>
<path d="M53.7894 7.05035C54.075 7.20998 54.299 7.43372 54.4613 7.72201C54.6236 8.01031 54.7048 8.33741 54.7048 8.70421C54.7048 9.07101 54.6236 9.39725 54.4613 9.68292C54.299 9.9686 54.075 10.1928 53.7894 10.3546C53.5038 10.5164 53.184 10.5975 52.8305 10.5975C52.4917 10.5975 52.1852 10.5177 51.9116 10.3581C51.6379 10.1984 51.426 9.97601 51.2761 9.69034V10.5692H50.9275V5.26782H51.2907V7.68974C51.4406 7.41366 51.6513 7.1982 51.9227 7.04337C52.1937 6.88854 52.4966 6.81134 52.8305 6.81134C53.184 6.81091 53.5038 6.89072 53.7894 7.05035ZM53.5934 10.0755C53.8258 9.94199 54.0085 9.75663 54.142 9.51806C54.275 9.27992 54.3415 9.00864 54.3415 8.70378C54.3415 8.39891 54.275 8.12763 54.142 7.88949C54.0089 7.65136 53.8262 7.46556 53.5934 7.3321C53.361 7.19864 53.0993 7.13191 52.8088 7.13191C52.5183 7.13191 52.258 7.19864 52.0278 7.3321C51.7976 7.46556 51.6162 7.65136 51.4832 7.88949C51.3501 8.12763 51.2836 8.39935 51.2836 8.70378C51.2836 9.00864 51.3501 9.27992 51.4832 9.51806C51.6162 9.7562 51.7981 9.94199 52.0278 10.0755C52.258 10.2089 52.5183 10.2756 52.8088 10.2756C53.0993 10.2756 53.361 10.2089 53.5934 10.0755Z" fill="white"/>
<path d="M55.8304 5.26782H56.1936V10.5683H55.8304V5.26782Z" fill="white"/>
<path d="M60.9298 8.78965H57.6683C57.678 9.08013 57.753 9.33876 57.8935 9.56468C58.0341 9.79104 58.224 9.96594 58.4639 10.0898C58.7038 10.2137 58.9735 10.2756 59.2737 10.2756C59.5208 10.2756 59.7496 10.2316 59.9603 10.1435C60.1709 10.0553 60.3466 9.92538 60.4872 9.75397L60.6978 9.98993C60.5333 10.1853 60.3262 10.3354 60.0765 10.44C59.8272 10.5447 59.5571 10.597 59.2666 10.597C58.8888 10.597 58.5522 10.5159 58.2568 10.3541C57.9614 10.1923 57.7299 9.96812 57.5631 9.68244C57.3959 9.39677 57.3126 9.07053 57.3126 8.70373C57.3126 8.34173 57.3911 8.0168 57.5485 7.72851C57.7059 7.44022 57.9228 7.21517 58.1987 7.05336C58.4745 6.89155 58.7845 6.81042 59.1283 6.81042C59.472 6.81042 59.7807 6.89024 60.0543 7.04987C60.3279 7.2095 60.5435 7.43193 60.7009 7.71761C60.8584 8.00328 60.9369 8.32734 60.9369 8.68934L60.9298 8.78965ZM58.4093 7.30022C58.196 7.4171 58.0253 7.58109 57.8971 7.79306C57.7689 8.00503 57.6949 8.24447 57.6758 8.51096H60.5816C60.567 8.24447 60.4942 8.00634 60.3639 7.79655C60.233 7.5872 60.0609 7.42277 59.8481 7.30371C59.6347 7.18464 59.3952 7.12532 59.1287 7.12532C58.8622 7.12532 58.6222 7.18377 58.4093 7.30022Z" fill="white"/>
<path d="M64.4419 10.3541C64.1536 10.1923 63.9274 9.96725 63.7629 9.67895C63.5984 9.39066 63.5159 9.06573 63.5159 8.70373C63.5159 8.34173 63.5984 8.0168 63.7629 7.72851C63.9274 7.44022 64.1541 7.21517 64.4419 7.05336C64.7302 6.89155 65.0531 6.81042 65.4118 6.81042C65.7702 6.81042 66.0935 6.89155 66.3818 7.05336C66.6701 7.21517 66.8962 7.44022 67.0612 7.72851C67.2258 8.0168 67.3083 8.34173 67.3083 8.70373C67.3083 9.06573 67.2258 9.39066 67.0612 9.67895C66.8967 9.96725 66.6701 10.1923 66.3818 10.3541C66.0935 10.5159 65.7702 10.597 65.4118 10.597C65.0535 10.597 64.7302 10.5164 64.4419 10.3541ZM66.1929 10.0754C66.4226 9.94195 66.6044 9.75659 66.7375 9.51802C66.8705 9.27988 66.9371 9.0086 66.9371 8.70373C66.9371 8.39887 66.8705 8.12758 66.7375 7.88945C66.6044 7.65131 66.4226 7.46552 66.1929 7.33206C65.9627 7.19859 65.7023 7.13186 65.4118 7.13186C65.1214 7.13186 64.861 7.19859 64.6308 7.33206C64.4007 7.46552 64.2193 7.65131 64.0862 7.88945C63.9532 8.12758 63.8866 8.3993 63.8866 8.70373C63.8866 9.0086 63.9532 9.27988 64.0862 9.51802C64.2193 9.75615 64.4011 9.94195 64.6308 10.0754C64.861 10.2089 65.1214 10.2756 65.4118 10.2756C65.7023 10.2756 65.9627 10.2089 66.1929 10.0754Z" fill="white"/>
<path d="M71.412 7.21827C71.6879 7.48956 71.8262 7.88034 71.8262 8.38976V10.5687H71.463V8.41855C71.463 7.99941 71.3552 7.68059 71.1397 7.46121C70.9241 7.24226 70.6226 7.13279 70.2354 7.13279C69.7897 7.13279 69.4388 7.26363 69.1821 7.52576C68.9253 7.78788 68.7971 8.14028 68.7971 8.58297V10.5687H68.4339V6.8397H68.7825V7.647C68.9133 7.38532 69.108 7.18033 69.3674 7.03248C69.6264 6.88506 69.9329 6.81091 70.2864 6.81091C70.7605 6.81091 71.1361 6.94655 71.412 7.21827Z" fill="white"/>
<path d="M77.0706 10.3328C76.9784 10.4187 76.8635 10.4841 76.7256 10.529C76.5876 10.5744 76.4435 10.5971 76.2936 10.5971C75.9641 10.5971 75.7099 10.5077 75.5308 10.3293C75.3516 10.1505 75.262 9.90185 75.262 9.58259V7.14672H74.5648V6.83967H75.262V6.02539H75.6252V6.83967H76.8311V7.14672H75.6252V9.54683C75.6252 9.78976 75.6847 9.97425 75.8031 10.1003C75.9215 10.2263 76.0971 10.2896 76.33 10.2896C76.5672 10.2896 76.7633 10.2207 76.9185 10.0824L77.0706 10.3328Z" fill="white"/>
<path d="M81.0586 7.21827C81.3345 7.48955 81.4729 7.88033 81.4729 8.38975V10.5687H81.1096V8.41854C81.1096 7.9994 81.0019 7.68058 80.7863 7.4612C80.5708 7.24225 80.2692 7.13278 79.882 7.13278C79.4363 7.13278 79.0855 7.26362 78.8287 7.52575C78.5719 7.78787 78.4437 8.14028 78.4437 8.58296V10.5687H78.0805V5.26782H78.4437V7.61821C78.5746 7.36088 78.7679 7.16244 79.0247 7.02156C79.2815 6.88112 79.584 6.81091 79.9326 6.81091C80.4071 6.81091 80.7828 6.94655 81.0586 7.21827Z" fill="white"/>
<path d="M86.1798 8.78965H82.9182C82.928 9.08013 83.0029 9.33876 83.1435 9.56468C83.2841 9.79104 83.4739 9.96594 83.7139 10.0898C83.9538 10.2137 84.2235 10.2756 84.5237 10.2756C84.7707 10.2756 84.9996 10.2316 85.2103 10.1435C85.4209 10.0553 85.5966 9.92538 85.7371 9.75397L85.9478 9.98993C85.7833 10.1853 85.5762 10.3354 85.3269 10.44C85.0777 10.5447 84.8076 10.597 84.5171 10.597C84.1392 10.597 83.8026 10.5159 83.5072 10.3541C83.2118 10.1923 82.9803 9.96812 82.8136 9.68244C82.6464 9.39677 82.563 9.07053 82.563 8.70373C82.563 8.34173 82.6415 8.0168 82.7989 7.72851C82.9564 7.44022 83.1732 7.21517 83.4491 7.05336C83.725 6.89155 84.035 6.81042 84.3787 6.81042C84.7224 6.81042 85.0311 6.89024 85.3047 7.04987C85.5784 7.2095 85.7939 7.43193 85.9514 7.71761C86.1088 8.00328 86.1873 8.32734 86.1873 8.68934L86.1798 8.78965ZM83.6593 7.30022C83.446 7.4171 83.2753 7.58109 83.1471 7.79306C83.0189 8.00503 82.9448 8.24447 82.9253 8.51096H85.8312C85.8165 8.24447 85.7438 8.00634 85.6134 7.79655C85.4826 7.5872 85.3105 7.42277 85.0976 7.30371C84.8843 7.18464 84.6448 7.12532 84.3782 7.12532C84.1121 7.12532 83.8722 7.18377 83.6593 7.30022Z" fill="white"/>
<path d="M35.0665 19.33H36.5589V22.6586C36.122 23.0006 35.6124 23.2631 35.0301 23.4459C34.4478 23.6286 33.849 23.7202 33.2344 23.7202C32.3686 23.7202 31.5885 23.5353 30.8931 23.1654C30.1972 22.7956 29.6513 22.2844 29.2552 21.6324C28.8588 20.9803 28.6609 20.2446 28.6609 19.425C28.6609 18.606 28.8592 17.8702 29.2552 17.2177C29.6513 16.5657 30.1995 16.0545 30.8993 15.6847C31.5987 15.3148 32.3855 15.1299 33.2592 15.1299C33.971 15.1299 34.6181 15.2455 35.2004 15.4757C35.7827 15.7065 36.2719 16.0445 36.6684 16.4898L35.6736 17.4441C35.0265 16.8077 34.246 16.4898 33.3324 16.4898C32.7336 16.4898 32.2019 16.6132 31.7371 16.8596C31.2719 17.1061 30.9077 17.4524 30.6452 17.8977C30.3822 18.3434 30.2509 18.8519 30.2509 19.4246C30.2509 19.9816 30.3822 20.4827 30.6452 20.928C30.9077 21.3737 31.2719 21.7235 31.7371 21.9778C32.2019 22.2325 32.7296 22.3594 33.3204 22.3594C33.9834 22.3594 34.5657 22.2164 35.0674 21.9298V19.33H35.0665Z" fill="white"/>
<path d="M39.6279 23.267C39.1019 22.9888 38.6917 22.601 38.3963 22.1038C38.1009 21.6066 37.9537 21.044 37.9537 20.4155C37.9537 19.7875 38.1014 19.2266 38.3963 18.7333C38.6912 18.24 39.1019 17.8545 39.6279 17.5762C40.1534 17.2979 40.7442 17.1588 41.3992 17.1588C42.0623 17.1588 42.6566 17.2979 43.1826 17.5762C43.7081 17.8549 44.1188 18.2405 44.4142 18.7333C44.7091 19.2266 44.8568 19.7875 44.8568 20.4155C44.8568 21.044 44.7091 21.6066 44.4142 22.1038C44.1188 22.601 43.7086 22.9888 43.1826 23.267C42.6566 23.5457 42.0623 23.6844 41.3992 23.6844C40.7442 23.6844 40.1539 23.5453 39.6279 23.267ZM42.7825 21.8592C43.1467 21.4932 43.3285 21.0122 43.3285 20.4155C43.3285 19.8189 43.1467 19.3378 42.7825 18.9719C42.4184 18.6059 41.9576 18.4232 41.3997 18.4232C40.8418 18.4232 40.3823 18.6064 40.0226 18.9719C39.6625 19.3378 39.4829 19.8189 39.4829 20.4155C39.4829 21.0122 39.6629 21.4932 40.0226 21.8592C40.3823 22.2251 40.8413 22.4078 41.3997 22.4078C41.9576 22.4078 42.4184 22.2251 42.7825 21.8592Z" fill="white"/>
<path d="M47.4531 23.267C46.9271 22.9888 46.5168 22.601 46.2215 22.1038C45.9261 21.6066 45.7788 21.044 45.7788 20.4155C45.7788 19.7875 45.9265 19.2266 46.2215 18.7333C46.5164 18.24 46.9271 17.8545 47.4531 17.5762C47.9786 17.2979 48.5694 17.1588 49.2244 17.1588C49.8875 17.1588 50.4817 17.2979 51.0077 17.5762C51.5333 17.8549 51.944 18.2405 52.2394 18.7333C52.5343 19.2266 52.682 19.7875 52.682 20.4155C52.682 21.044 52.5343 21.6066 52.2394 22.1038C51.944 22.601 51.5337 22.9888 51.0077 23.267C50.4817 23.5457 49.8875 23.6844 49.2244 23.6844C48.5694 23.6844 47.9786 23.5453 47.4531 23.267ZM50.6073 21.8592C50.9714 21.4932 51.1532 21.0122 51.1532 20.4155C51.1532 19.8189 50.9714 19.3378 50.6073 18.9719C50.2431 18.6059 49.7823 18.4232 49.2244 18.4232C48.6665 18.4232 48.207 18.6064 47.8473 18.9719C47.4872 19.3378 47.3076 19.8189 47.3076 20.4155C47.3076 21.0122 47.4877 21.4932 47.8473 21.8592C48.207 22.2251 48.666 22.4078 49.2244 22.4078C49.7823 22.4078 50.2436 22.2251 50.6073 21.8592Z" fill="white"/>
<path d="M60.5675 17.2299V22.6346C60.5675 24.8777 59.4028 25.999 57.0735 25.999C56.4509 25.999 55.8601 25.9214 55.3022 25.7666C54.7443 25.6113 54.283 25.3867 53.9189 25.0923L54.5984 23.971C54.8813 24.2017 55.2392 24.3866 55.6721 24.5257C56.1045 24.6649 56.5436 24.7347 56.9884 24.7347C57.6998 24.7347 58.2218 24.5755 58.5535 24.2575C58.8853 23.9391 59.0507 23.4541 59.0507 22.8021V22.468C58.7917 22.7467 58.4763 22.9574 58.1042 23.1004C57.7321 23.2435 57.3237 23.315 56.8788 23.315C56.2642 23.315 55.708 23.1859 55.2108 22.9273C54.7137 22.6691 54.3212 22.3049 54.0342 21.8356C53.7473 21.3663 53.6036 20.8294 53.6036 20.2249C53.6036 19.6204 53.7473 19.0857 54.0342 18.6203C54.3212 18.155 54.7137 17.7951 55.2108 17.5404C55.7084 17.2862 56.2642 17.1588 56.8788 17.1588C57.3476 17.1588 57.7747 17.2347 58.1588 17.3856C58.5429 17.537 58.8644 17.7672 59.1234 18.0778V17.2308H60.5675V17.2299ZM58.5234 21.5429C58.8915 21.2049 59.0755 20.7657 59.0755 20.2245C59.0755 19.6915 58.8915 19.258 58.5234 18.9239C58.1552 18.5898 57.6842 18.4228 57.1099 18.4228C56.5276 18.4228 56.0522 18.5898 55.6845 18.9239C55.3164 19.258 55.1323 19.6915 55.1323 20.2245C55.1323 20.7653 55.3164 21.2049 55.6845 21.5429C56.0522 21.881 56.5276 22.0502 57.1099 22.0502C57.6842 22.0497 58.1552 21.881 58.5234 21.5429Z" fill="white"/>
<path d="M62.557 14.7483H64.0733V23.6007H62.557V14.7483Z" fill="white"/>
<path d="M72.1291 20.8927H67.0457C67.1344 21.3619 67.3672 21.734 67.7433 22.0083C68.1194 22.2826 68.5864 22.42 69.1444 22.42C69.8562 22.42 70.4425 22.1893 70.9037 21.7279L71.7167 22.6464C71.4257 22.9883 71.0572 23.247 70.6128 23.4219C70.168 23.5968 69.6664 23.6844 69.1084 23.6844C68.3966 23.6844 67.7699 23.5453 67.228 23.267C66.686 22.9888 66.2674 22.601 65.9724 22.1038C65.6771 21.6066 65.5298 21.044 65.5298 20.4155C65.5298 19.7953 65.6735 19.2366 65.9605 18.7394C66.2474 18.2426 66.6461 17.8545 67.1557 17.5762C67.6653 17.2979 68.2396 17.1588 68.8783 17.1588C69.5089 17.1588 70.0731 17.2962 70.5707 17.5705C71.0678 17.8449 71.4563 18.2309 71.7353 18.7276C72.0143 19.2248 72.154 19.7997 72.154 20.4517C72.1531 20.5546 72.1451 20.7016 72.1291 20.8927ZM67.6462 18.7752C67.3105 19.0578 67.1065 19.4333 67.0337 19.9026H70.7099C70.6452 19.4416 70.4469 19.0674 70.1156 18.7813C69.7839 18.4952 69.3714 18.3517 68.8783 18.3517C68.3922 18.3512 67.9819 18.4925 67.6462 18.7752Z" fill="white"/>
<path d="M82.52 15.6075C83.0659 15.846 83.4846 16.188 83.7755 16.6333C84.0669 17.079 84.2124 17.6076 84.2124 18.22C84.2124 18.8245 84.0669 19.3513 83.7755 19.801C83.4846 20.2502 83.0659 20.5944 82.52 20.8329C81.974 21.0715 81.3327 21.191 80.5969 21.191H78.6801V23.6011H77.103V15.2494H80.5969C81.3327 15.2494 81.974 15.3689 82.52 15.6075ZM82.0889 19.449C82.4446 19.1625 82.6229 18.7529 82.6229 18.22C82.6229 17.687 82.445 17.2775 82.0889 16.9909C81.7328 16.7044 81.2112 16.5613 80.5238 16.5613H78.6797V19.8782H80.5238C81.2116 19.8786 81.7332 19.7356 82.0889 19.449Z" fill="white"/>
<path d="M85.7651 14.7483H87.2814V23.6007H85.7651V14.7483Z" fill="white"/>
<path d="M93.9357 17.8327C94.4413 18.2823 94.6941 18.9601 94.6941 19.8668V23.6011H93.2625V22.8257C93.0762 23.1043 92.8114 23.3168 92.4677 23.4637C92.124 23.6107 91.7093 23.6844 91.2241 23.6844C90.7389 23.6844 90.3141 23.6029 89.9504 23.4397C89.5863 23.2766 89.3055 23.0503 89.1073 22.7598C88.9091 22.4698 88.8102 22.1413 88.8102 21.7754C88.8102 21.2028 89.0266 20.7435 89.459 20.3976C89.8914 20.0518 90.5731 19.8786 91.5031 19.8786H93.1773V19.7831C93.1773 19.3378 93.0416 18.9959 92.7711 18.7573C92.5001 18.5187 92.0978 18.3992 91.5639 18.3992C91.1997 18.3992 90.8418 18.455 90.4901 18.5663C90.1384 18.6779 89.8413 18.8327 89.5983 19.0316L89.004 17.9461C89.3437 17.6918 89.7522 17.4968 90.2294 17.3616C90.7066 17.2264 91.2122 17.1588 91.7457 17.1588C92.7001 17.1584 93.4301 17.383 93.9357 17.8327ZM92.5529 22.3424C92.8483 22.1714 93.0562 21.9268 93.1778 21.6088V20.8691H91.6126C90.7389 20.8691 90.3025 21.1517 90.3025 21.7161C90.3025 21.9865 90.4116 22.2015 90.6303 22.3603C90.8485 22.5195 91.1518 22.5989 91.5404 22.5989C91.9196 22.5989 92.2575 22.5134 92.5529 22.3424Z" fill="white"/>
<path d="M102.58 17.23L99.5465 24.1141C99.2631 24.8063 98.9198 25.293 98.5154 25.5756C98.1109 25.8578 97.6217 25.9991 97.0474 25.9991C96.7236 25.9991 96.4043 25.9472 96.089 25.8439C95.7736 25.7405 95.5146 25.5974 95.3124 25.4143L95.9191 24.3165C96.0646 24.4517 96.2362 24.559 96.4349 24.6388C96.6331 24.7182 96.8331 24.7583 97.0354 24.7583C97.3024 24.7583 97.5228 24.6907 97.6967 24.5555C97.8705 24.4203 98.0302 24.1935 98.1761 23.8755L98.2852 23.6252L95.4583 17.2304H97.0354L99.0737 21.943L101.124 17.2304H102.58V17.23Z" fill="white"/>
<path d="M25.7467 15.5914L21.67 13.2781L18.3171 16.4654L21.3813 19.3784L25.7467 16.9007C25.9871 16.7646 26.1307 16.5195 26.1307 16.2465C26.1303 15.973 25.9866 15.7283 25.7467 15.5914Z" fill="white"/>
<path d="M20.9781 12.8851L16.4917 10.3384L6.6601 5.38379L17.7645 15.9398L20.9781 12.8851Z" fill="white"/>
<path d="M6.8233 27.3913L16.5085 22.1445L20.6894 19.7714L17.7645 16.991L6.8233 27.3913Z" fill="white"/>
<path d="M6.00414 5.81079L5.9935 27.1296L17.2119 16.465L6.00414 5.81079Z" fill="white"/>
</g>
<defs>
<clipPath id="clip0_133_59">
<rect width="107" height="32" fill="white"/>
</clipPath>
</defs>
</svg>
