<svg width="143" height="30" viewBox="0 0 143 30" fill="none" xmlns="http://www.w3.org/2000/svg">
<path d="M142.74 12.1239C142.717 12.0266 141.403 11.2554 139.333 10.1093C138.219 9.49238 136.888 8.76866 135.416 7.97375C134.639 7.5585 133.828 7.12428 132.989 6.68056C132.357 6.34598 131.735 6.01853 131.134 5.70532C130.207 6.12294 128.722 6.85853 127.015 7.72937C125.645 8.42699 124.129 9.21238 122.642 9.98831C121.606 10.5151 120.236 11.2174 118.515 12.1239L118.549 12.1429C120.399 13.1134 121.839 13.8513 122.899 14.3876C124.222 13.6757 125.764 12.8761 127.326 12.0622C128.691 11.3503 130.069 10.6385 131.334 9.99306C132.818 10.7785 134.139 11.488 135.279 12.1073C130.111 14.7435 122.982 18.5543 122.982 18.5543C121.427 17.7903 118.65 16.3832 114.951 14.4256C113.319 13.5642 111.881 12.793 110.653 12.1239C110.653 12.1239 115.806 9.36901 120.526 6.92497C123.194 5.54397 125.722 4.26025 127.106 3.62906C124.728 2.42128 123.132 1.65722 122.982 1.66908C122.723 1.6501 118.319 3.85923 112.972 6.68531C107.583 9.53274 103.262 11.9435 103.223 12.1215C103.262 12.2971 107.583 14.7079 112.972 17.5577C118.319 20.3838 122.728 22.5929 122.982 22.574C123.241 22.5929 127.645 20.3838 132.989 17.5577C138.38 14.7103 142.698 12.2971 142.74 12.1215V12.1239Z" fill="#46B876"/>
<path d="M131.01 21.1645C127.31 23.1221 124.533 24.5292 122.979 25.2932C121.425 24.5292 118.648 23.1221 114.948 21.1645C113.316 20.3008 111.878 19.5296 110.65 18.8628C110.526 20.2621 110.526 21.6682 110.65 23.0675C111.391 23.4638 112.169 23.879 112.982 24.3014C118.329 27.1298 122.738 29.339 122.992 29.32C123.251 29.339 127.655 27.1298 132.999 24.3014C133.802 23.879 134.577 23.4638 135.331 23.0675C135.448 21.668 135.448 20.2623 135.331 18.8628C134.08 19.5296 132.642 20.3008 131.01 21.1645Z" fill="#46B876"/>
<path d="M5.75008 10.5671C4.02994 10.681 2.64138 11.1793 1.66473 12.3895C0.688084 13.5996 0.198487 15.2678 0.198487 17.3962C0.198487 19.463 0.675144 21.1216 1.61293 22.327C2.55072 23.5324 3.92116 24.1684 5.64908 24.1684C7.31741 24.1684 8.62565 23.606 9.53495 22.4931L9.44944 23.6962V23.9501C9.44944 25.808 8.54015 26.7121 6.66975 26.7121C4.8168 26.7236 2.98041 26.3918 1.27096 25.7368L1.04302 25.649L0.125943 27.2863C0.0358841 27.4477 -0.00714798 27.6277 0.000967908 27.8089C0.0090838 27.99 0.0681047 28.1662 0.172303 28.3203C0.276501 28.4744 0.422325 28.6014 0.595739 28.6888C0.769153 28.7761 0.964258 28.821 1.16218 28.8192C2.61808 29.3269 4.40038 29.5856 6.4573 29.5856C8.80955 29.5856 10.6023 29.092 11.8095 28.1192C13.0167 27.1463 13.6229 25.6917 13.6229 23.8124V17.6786C13.6203 14.8122 13.3223 10.0594 5.75008 10.5671ZM9.71887 17.8447C9.71887 19.0145 9.50646 19.864 9.08937 20.3742C8.67229 20.8843 7.9832 21.124 7.01691 21.124C6.12316 21.124 5.48587 20.8345 5.06879 20.2413C4.65171 19.6481 4.42374 18.6918 4.42374 17.4413C4.42374 14.9332 5.25273 13.7159 6.95215 13.7159C7.93398 13.7159 8.62045 13.9888 9.05566 14.5512C9.49088 15.1136 9.71887 16.0888 9.71887 17.42V17.8447Z" fill="#46B876"/>
<path d="M99.2338 5.97345C98.941 5.94735 98.6405 5.93311 98.3297 5.93311C98.0168 5.93407 97.7046 5.96107 97.397 6.01377C97.0952 6.06454 96.8074 6.16938 96.5499 6.32226C96.2888 6.48423 96.0775 6.7048 95.936 6.96292C95.7665 7.30181 95.6866 7.67251 95.7028 8.04496V24.3489C95.8701 24.3992 96.0448 24.4263 96.2209 24.4295C96.4929 24.4461 96.7857 24.4557 97.0965 24.4557C97.4489 24.4589 97.8006 24.4279 98.1457 24.3631C98.4452 24.3105 98.7247 24.1881 98.9575 24.0077C99.1903 23.8273 99.3684 23.595 99.4747 23.3333C99.6133 22.9822 99.6775 22.6101 99.6638 22.237V6.03987C99.525 5.99772 99.38 5.97533 99.2338 5.97345Z" fill="#46B876"/>
<path d="M26.783 10.6218C26.4693 10.6229 26.1562 10.6499 25.8478 10.7025C25.5467 10.753 25.2596 10.8578 25.0032 11.011C24.7412 11.172 24.5296 11.3928 24.3893 11.6516C24.2199 11.9905 24.14 12.3612 24.1561 12.7337V23.9763C24.1561 25.8366 23.0499 26.641 21.1795 26.641C19.3277 26.6523 17.4924 26.3214 15.7833 25.6681L15.5528 25.578L14.9052 26.7359C14.8061 26.9126 14.7471 27.1058 14.7315 27.304C14.7159 27.5021 14.7442 27.7011 14.8146 27.889C14.885 28.0768 14.996 28.2498 15.1411 28.3974C15.2862 28.545 15.4624 28.6643 15.659 28.7481C17.1175 29.2583 18.8973 29.5145 20.9542 29.5145C23.309 29.5145 25.0991 29.021 26.3089 28.0481C27.5187 27.0752 28.1223 25.6207 28.1223 23.7414V10.7167C27.9809 10.6742 27.8333 10.6518 27.6845 10.6503C27.3944 10.6218 27.0939 10.6218 26.783 10.6218Z" fill="#46B876"/>
<path d="M75.833 18.3577C75.8393 18.3489 75.8462 18.3406 75.8538 18.3329V18.2981C75.846 18.318 75.8408 18.3378 75.833 18.3577Z" fill="#46B876"/>
<path d="M79.5687 20.2888C79.5687 20.2888 79.5686 20.3054 79.5816 20.3149C79.6252 20.193 79.6599 20.0686 79.6852 19.9424C79.6697 19.997 79.6516 20.0515 79.6334 20.1061C79.6153 20.1607 79.6024 20.2295 79.5687 20.2888Z" fill="#46B876"/>
<path d="M79.3018 13.1252C78.839 12.0842 78.0404 11.1973 77.0127 10.583C75.9851 9.9686 74.7774 9.65602 73.5507 9.6869C71.4782 9.6869 69.8203 10.337 68.6623 11.6184C67.5846 12.8048 67.1416 14.1526 67.0536 15.8895C66.994 16.9882 67.639 18.5353 68.525 19.2115C69.1882 19.7075 70.2089 19.959 71.5897 19.959C72.7364 19.959 73.6552 19.7858 74.346 19.4393C74.5248 19.3492 74.6905 19.2566 74.846 19.1617C75.5843 18.6017 74.9263 17.6193 74.3849 16.8458C73.9554 16.9832 73.5031 17.0514 73.0481 17.0475C72.6428 17.0656 72.2385 16.9974 71.8668 16.8482C71.6003 16.7275 71.3846 16.5299 71.2529 16.2858C71.1082 16.0327 71.0453 15.7471 71.0715 15.4624C71.1041 15.1618 71.1639 14.8642 71.2503 14.5726C71.3274 14.3251 71.42 14.0819 71.5275 13.8441C71.8513 13.1441 72.5792 12.857 73.5093 12.857C74.4393 12.857 75.0947 13.1821 75.5014 13.8489C75.9081 14.5156 76.1284 15.5858 76.1284 16.9787C76.1284 18.3716 75.9185 19.4441 75.504 20.1417C75.1258 20.7847 74.5248 21.3898 73.6906 21.4254H55.0151L47.1475 21.404H46.9196C46.3239 21.4029 45.7383 21.2633 45.2176 20.9983C45.0353 20.9173 44.8745 20.8007 44.7466 20.6569C44.6186 20.513 44.5265 20.3453 44.4766 20.1654V17.681C44.4766 14.8146 44.1787 10.0618 36.6065 10.5625C34.8837 10.6764 33.4978 11.1747 32.5211 12.3848C31.5445 13.595 31.0523 15.2631 31.0523 17.3916C31.0523 19.4583 31.5289 21.117 32.4693 22.3224C33.4097 23.5278 34.7775 24.1637 36.5054 24.1637C38.1737 24.1637 39.482 23.6013 40.3913 22.4885L40.3032 23.6915V23.9454C40.3032 25.8033 39.3965 26.7074 37.5261 26.7074C35.6732 26.7189 33.8368 26.3872 32.1273 25.7322L31.8968 25.6444L30.9823 27.2816C30.8921 27.4419 30.8484 27.6208 30.8555 27.801C30.8625 27.9812 30.92 28.1567 31.0226 28.3107C31.1251 28.4646 31.2691 28.5918 31.4408 28.6801C31.6125 28.7683 31.8061 28.8146 32.003 28.8145C33.4615 29.3223 35.2438 29.5809 37.3007 29.5809C39.653 29.5809 41.4457 29.0874 42.6529 28.1145C43.8601 27.1416 44.4663 25.6871 44.4663 23.8078V22.9132C44.8444 23.2683 45.2816 23.5662 45.7616 23.7959C46.4524 24.1439 47.3712 24.3179 48.518 24.3179H73.2217V24.3013C73.3072 24.3013 73.3901 24.3179 73.4808 24.3179C75.5533 24.3179 77.1905 23.6583 78.4029 22.384C78.7386 22.0038 79.0384 21.5982 79.2992 21.1715C79.495 20.7839 79.6418 20.3771 79.737 19.959C79.9722 18.981 80.0912 17.9825 80.0919 16.9811C80.1246 15.6594 79.8555 14.346 79.3018 13.1252ZM40.5649 17.8448C40.5649 18.1366 40.5648 18.4095 40.526 18.661C40.4942 18.9988 40.4248 19.3328 40.3188 19.6576C40.2347 19.9131 40.1042 20.1538 39.9328 20.3695C39.7785 20.5588 39.5803 20.7144 39.3524 20.8251C39.1885 20.9063 39.0146 20.9693 38.8343 21.0125C38.5162 21.0874 38.1887 21.1233 37.8603 21.1193C37.7531 21.1195 37.6458 21.1147 37.539 21.1051C37.2513 21.0847 36.9702 21.0154 36.7101 20.901C36.55 20.8285 36.4018 20.7358 36.2697 20.6258C36.1339 20.5103 36.0147 20.3796 35.9148 20.2366C35.8007 20.074 35.706 19.9005 35.6324 19.7193C35.5035 19.3936 35.4124 19.0564 35.3604 18.7132C35.2973 18.2902 35.2671 17.8636 35.2698 17.4366C35.2698 14.9285 36.0961 13.7113 37.7981 13.7113C38.1915 13.7041 38.5831 13.7628 38.9535 13.8845C39.3349 14.0119 39.6648 14.2428 39.8991 14.5465C39.9577 14.6217 40.0097 14.701 40.0545 14.7838C40.214 15.0743 40.3299 15.3832 40.399 15.7021C40.4571 15.9623 40.4986 16.2253 40.5234 16.4899C40.5519 16.777 40.5649 17.0878 40.5649 17.42V17.8448Z" fill="#46B876"/>
<path d="M81.8846 23.8007C82.5323 24.1352 83.4649 24.2966 84.5322 24.3156H89.4543C90.4859 24.2884 91.4653 23.894 92.1845 23.2162C92.9038 22.5383 93.3062 21.6304 93.3065 20.6851V6.02083C93.1655 5.97684 93.0176 5.95438 92.8687 5.95438C92.5759 5.92828 92.2754 5.91406 91.9646 5.91406C91.6507 5.91385 91.3377 5.94085 91.0294 5.99473C90.7281 6.04328 90.4408 6.14743 90.1849 6.30084C89.9228 6.46184 89.7112 6.68266 89.5709 6.9415C89.4015 7.2804 89.3216 7.6511 89.3377 8.02354V21.4041H83.1204C82.5247 21.4029 81.9391 21.2633 81.4183 20.9983C81.3239 20.947 81.219 20.914 81.1101 20.9012C81.0012 20.8884 80.8905 20.8961 80.785 20.9239C80.6794 20.9516 80.5813 20.9989 80.4964 21.0627C80.4115 21.1265 80.3417 21.2055 80.2914 21.2949C80.1251 21.5856 79.9373 21.8654 79.7293 22.1325C80.2267 22.823 81.224 23.459 81.8846 23.8007Z" fill="#46B876"/>
<path d="M80.4054 3.80921L76.5713 7.32102L72.7373 3.80921L76.5713 0.297363L80.4054 3.80921Z" fill="#46B876"/>
<path d="M73.3616 3.80921L69.5275 7.32102L65.6935 3.80921L69.5275 0.297363L73.3616 3.80921Z" fill="#46B876"/>
</svg>
