<svg width="100" height="39" viewBox="0 0 100 39" fill="none" xmlns="http://www.w3.org/2000/svg">
<path d="M21.8638 13.1613H24.9371V9.47936C24.9371 9.02799 25.0841 8.64527 25.4085 8.33062C25.5595 8.17832 25.7392 8.05744 25.9372 7.97494C26.1352 7.89245 26.3476 7.84998 26.5621 7.84998C26.7766 7.84998 26.9889 7.89245 27.1869 7.97494C27.3849 8.05744 27.5646 8.17832 27.7157 8.33062C27.8716 8.47793 27.9949 8.65624 28.0778 8.85408C28.1606 9.05192 28.2012 9.26492 28.1968 9.47936V12.0137H29.4336V12.7305H27.8427C27.7469 12.7289 27.6555 12.6901 27.5878 12.6223C27.5201 12.5545 27.4814 12.463 27.48 12.3672V9.47936C27.4636 9.24838 27.3603 9.03218 27.1909 8.87433C27.0215 8.71648 26.7985 8.62871 26.5669 8.62871C26.3354 8.62871 26.1124 8.71648 25.943 8.87433C25.7736 9.03218 25.6703 9.24838 25.6539 9.47936V13.5246C25.6519 13.6194 25.6127 13.7097 25.5447 13.7758C25.4768 13.842 25.3855 13.8787 25.2906 13.8781H21.8444C21.2752 13.8781 20.7843 13.6716 20.3621 13.2597C20.1618 13.0649 20.0035 12.831 19.897 12.5726C19.7906 12.3143 19.7382 12.0368 19.7431 11.7574C19.7446 11.3568 19.855 10.9641 20.0626 10.6214C20.2702 10.2788 20.5672 9.99908 20.9216 9.81231L21.1276 9.70419C21.1456 9.69654 21.1652 9.69321 21.1848 9.69447C21.209 9.69316 21.233 9.69896 21.254 9.71116C21.2749 9.72336 21.2918 9.74142 21.3026 9.76312L21.5086 10.1756C21.5187 10.1973 21.5255 10.2205 21.5286 10.2442C21.5292 10.2671 21.5231 10.2895 21.5108 10.3088C21.4986 10.3281 21.4809 10.3432 21.46 10.3524L21.2534 10.4605C21.0159 10.5841 20.8164 10.77 20.6763 10.9982C20.5363 11.2264 20.4609 11.4885 20.4582 11.7563C20.4612 12.1281 20.6103 12.4838 20.8733 12.7467C21.1362 13.0095 21.492 13.1584 21.8638 13.1613ZM22.8164 14.9485V15.5274C22.8164 15.6161 22.7775 15.655 22.6888 15.655H22.1968C22.1081 15.655 22.0692 15.6161 22.0692 15.5274V14.9485C22.0692 14.8598 22.1081 14.8106 22.1968 14.8106H22.6876C22.7775 14.8106 22.8164 14.8598 22.8164 14.9485ZM24.1224 14.9485V15.5274C24.1224 15.6161 24.0829 15.655 23.9948 15.655H23.5126C23.4245 15.655 23.3753 15.6161 23.3753 15.5274V14.9485C23.3731 14.9299 23.3751 14.911 23.3813 14.8934C23.3874 14.8757 23.3974 14.8596 23.4106 14.8463C23.4238 14.8331 23.4398 14.823 23.4575 14.8168C23.4752 14.8106 23.494 14.8085 23.5126 14.8106H23.9943C24.0847 14.8106 24.1224 14.8598 24.1224 14.9485Z" fill="#4C4A4C"/>
<path d="M31.0898 11.4725V8.17391C31.0876 8.15534 31.0896 8.13652 31.0958 8.11886C31.1019 8.1012 31.1119 8.08515 31.1251 8.07193C31.1384 8.05872 31.1544 8.04867 31.1721 8.04255C31.1897 8.03643 31.2086 8.0344 31.2271 8.0366H31.6785C31.6971 8.0344 31.7159 8.03643 31.7335 8.04255C31.7512 8.04867 31.7672 8.05872 31.7805 8.07193C31.7937 8.08515 31.8037 8.1012 31.8099 8.11886C31.816 8.13652 31.818 8.15534 31.8158 8.17391V11.6098C31.8114 11.654 31.8161 11.6985 31.8297 11.7408C31.8433 11.783 31.8654 11.822 31.8947 11.8553C31.9926 11.9537 32.1894 12.0126 32.4743 12.0126H32.9354V12.7294H32.6013C32.1207 12.7294 31.7574 12.6013 31.5217 12.3661C31.512 12.3558 31.5017 12.3558 31.5017 12.3467C31.4956 12.3648 31.4856 12.3814 31.4725 12.3953C31.2466 12.6241 30.9422 12.7294 30.5572 12.7294H29.087V12.0137H30.579C30.9325 12.0137 31.0898 11.8358 31.0898 11.4725ZM31.0795 6.75056V6.17104C31.0795 6.08237 31.119 6.03374 31.2071 6.03374H31.6888C31.7073 6.03165 31.7261 6.03376 31.7437 6.03992C31.7613 6.04608 31.7773 6.05613 31.7905 6.06932C31.8037 6.08251 31.8138 6.09851 31.8199 6.11612C31.8261 6.13373 31.8282 6.15251 31.8261 6.17104V6.75056C31.8261 6.83809 31.7769 6.87757 31.6888 6.87757H31.2071C31.1213 6.87757 31.0795 6.83809 31.0795 6.75056Z" fill="#4C4A4C"/>
<path d="M37.8238 12.7295H32.6894V12.0138H34.2306V5.76836C34.2296 5.74922 34.2328 5.73011 34.24 5.71235C34.2472 5.69459 34.2582 5.67861 34.2722 5.66554C34.2862 5.65246 34.3028 5.6426 34.3211 5.63665C34.3393 5.63069 34.3586 5.62878 34.3776 5.63106H34.8295C34.9176 5.63106 34.9571 5.68026 34.9571 5.76836V9.21458C35.9296 8.31126 36.7735 7.85016 37.48 7.85016C38.7563 7.85016 39.4931 8.80211 39.4931 10.1179V11.0607C39.4931 12.1007 38.8644 12.7295 37.8238 12.7295ZM38.7763 11.0607V10.1179C38.7825 9.80167 38.7151 9.48832 38.5795 9.20257C38.3638 8.78037 37.9909 8.5647 37.48 8.5647C37.1465 8.5647 36.7363 8.73117 36.2334 9.04524C35.7465 9.34985 35.3149 9.73501 34.9571 10.1843V12.0138H37.8238C38.4817 12.0138 38.7763 11.718 38.7763 11.0607Z" fill="#4C4A4C"/>
<path d="M44.3501 12.8473V12.7294H43.0052C42.4546 12.7302 41.9263 12.5125 41.5361 12.1241C41.1459 11.7358 40.9257 11.2085 40.9239 10.6579V9.92166C40.9206 9.64921 40.9729 9.37894 41.0777 9.12741C41.1824 8.87589 41.3374 8.64839 41.5332 8.45884C41.7246 8.26293 41.9538 8.10795 42.207 8.00331C42.4601 7.89868 42.7318 7.84657 43.0057 7.85015C43.5546 7.85196 44.0804 8.07079 44.4685 8.45888C44.8566 8.84697 45.0754 9.37282 45.0772 9.92166V12.0138H46.5601V12.7306H45.0767V12.8484C45.0767 13.3685 44.8804 13.821 44.4977 14.2031C44.3229 14.3856 44.1124 14.5303 43.8794 14.6282C43.6464 14.7261 43.3958 14.7752 43.143 14.7723H42.1213C42.104 14.7745 42.0865 14.7726 42.07 14.767C42.0536 14.7613 42.0387 14.752 42.0264 14.7397C42.0141 14.7274 42.0047 14.7125 41.9991 14.696C41.9934 14.6796 41.9916 14.662 41.9937 14.6448V14.1837C41.9916 14.1664 41.9934 14.1489 41.9991 14.1324C42.0047 14.116 42.0141 14.101 42.0264 14.0887C42.0387 14.0764 42.0536 14.0671 42.07 14.0615C42.0865 14.0558 42.104 14.054 42.1213 14.0561H43.143C43.4614 14.0494 43.7647 13.9198 43.9897 13.6945C44.2147 13.4692 44.3438 13.1656 44.3501 12.8473ZM43.0052 12.0138H44.3501V9.92166C44.3501 9.56359 44.2079 9.22018 43.9547 8.96698C43.7015 8.71379 43.3581 8.57154 43 8.57154C42.6419 8.57154 42.2985 8.71379 42.0453 8.96698C41.7921 9.22018 41.6499 9.56359 41.6499 9.92166V10.6579C41.6543 11.016 41.7985 11.3582 42.0517 11.6115C42.3049 11.8648 42.647 12.0092 43.0052 12.0138Z" fill="#4C4A4C"/>
<path d="M47.8833 11.4823V5.77805C47.8833 5.68995 47.9222 5.64075 48.0109 5.64075H48.472C48.5606 5.64075 48.5995 5.68995 48.5995 5.77805V11.4823C48.5995 12.2483 48.1087 12.7294 47.353 12.7294H46.214V12.0137H47.3627C47.726 12.0029 47.8833 11.8358 47.8833 11.4823Z" fill="#4C4A4C"/>
<path d="M50.778 12.7294H50.3072C50.2185 12.7294 50.1791 12.6899 50.1791 12.6013V5.76832C50.1791 5.68022 50.2185 5.64075 50.3072 5.64075H50.778C50.8564 5.64075 50.8959 5.68022 50.8959 5.76832V12.6013C50.8959 12.6899 50.8581 12.7294 50.778 12.7294Z" fill="#4C4A4C"/>
<path d="M55.381 13.1007V8.18084C55.381 8.09274 55.4205 8.04354 55.5091 8.04354H55.9708C55.9894 8.04144 56.0081 8.04355 56.0257 8.04971C56.0434 8.05587 56.0593 8.06592 56.0725 8.07911C56.0857 8.0923 56.0958 8.1083 56.1019 8.12591C56.1081 8.14352 56.1102 8.1623 56.1081 8.18084V12.0138H57.6087V12.7306H56.1081V13.1007C56.1081 14.1414 55.4697 14.7695 54.4291 14.7695H53.9382C53.8495 14.7695 53.8101 14.7306 53.8101 14.6419V14.1808C53.8101 14.0922 53.8495 14.0533 53.9382 14.0533H54.4291C55.0869 14.055 55.381 13.7604 55.381 13.1007ZM55.381 6.75063V6.17111C55.381 6.08244 55.4205 6.03381 55.5091 6.03381H55.9897C56.0083 6.03162 56.0271 6.03366 56.0448 6.03978C56.0625 6.0459 56.0786 6.05593 56.0918 6.06914C56.1051 6.08234 56.1152 6.09837 56.1214 6.11603C56.1276 6.13369 56.1297 6.15252 56.1276 6.17111V6.75063C56.1276 6.83816 56.0784 6.87763 55.9897 6.87763H55.5091C55.4205 6.87763 55.381 6.83816 55.381 6.75063Z" fill="#4C4A4C"/>
<path d="M60.8782 6.01367H61.6928C61.7815 6.01367 61.8209 6.05315 61.8209 6.14125V6.60292C61.8209 6.69102 61.7815 6.73049 61.6928 6.73049H60.8782C59.8576 6.73049 59.2878 7.27054 59.1796 8.33232H61.0155C61.6447 8.33232 62.1648 8.53884 62.5767 8.96161C62.9886 9.38438 63.1854 9.91356 63.1854 10.552V11.4845C63.1854 12.2505 62.7048 12.7316 61.9382 12.7316H57.1184V12.0137H61.9291C62.2918 12.0137 62.4685 11.8472 62.4685 11.4834V10.5509C62.4685 9.66699 61.8896 9.04857 61.0155 9.04857H58.8066C58.7117 9.04934 58.6204 9.01265 58.5523 8.94645C58.4843 8.88026 58.4452 8.78991 58.4434 8.69502C58.4434 7.08347 59.2975 6.01367 60.8782 6.01367Z" fill="#4C4A4C"/>
<path d="M65.2351 13.1007V8.18081C65.233 8.16227 65.2351 8.1435 65.2413 8.12589C65.2475 8.10827 65.2575 8.09228 65.2707 8.07908C65.2839 8.06589 65.2999 8.05584 65.3175 8.04968C65.3351 8.04352 65.3539 8.04141 65.3724 8.04351H65.8244C65.8428 8.04162 65.8615 8.04387 65.879 8.05011C65.8965 8.05635 65.9124 8.06641 65.9255 8.07957C65.9386 8.09273 65.9486 8.10865 65.9547 8.12616C65.9609 8.14368 65.9631 8.16235 65.9611 8.18081V12.0138H67.4531V12.7306H65.9611V13.1007C65.9611 14.1413 65.3227 14.7695 64.282 14.7695H63.7906C63.7025 14.7695 63.663 14.7306 63.663 14.6419V14.1808C63.663 14.0921 63.7025 14.0532 63.7906 14.0532H64.282C64.9405 14.055 65.2351 13.7603 65.2351 13.1007Z" fill="#4C4A4C"/>
<path d="M73.2162 12.0137H73.9525V12.7306H73.3535C72.8427 12.7306 72.4205 12.5246 72.1756 12.1613C71.9873 12.3451 71.7647 12.49 71.5203 12.5877C71.276 12.6853 71.0148 12.7339 70.7517 12.7306H66.972V12.0137H68.6802V9.92163C68.6768 9.64769 68.729 9.37591 68.8336 9.12271C68.9382 8.86951 69.0931 8.64016 69.2889 8.44852C69.4804 8.25531 69.7082 8.10195 69.9593 7.99729C70.2104 7.89263 70.4797 7.83875 70.7517 7.83875C71.0237 7.83875 71.2931 7.89263 71.5441 7.99729C71.7952 8.10195 72.0231 8.25531 72.2145 8.44852C72.4109 8.63984 72.5664 8.86907 72.6715 9.12229C72.7767 9.37552 72.8292 9.64747 72.8261 9.92163V10.6579C72.8273 10.993 72.7466 11.3234 72.591 11.6201C72.6545 11.885 72.8919 12.0137 73.2162 12.0137ZM69.397 9.92277V12.0137H70.7517C71.1108 12.013 71.4549 11.87 71.7088 11.6161C71.9627 11.3622 72.1057 11.0181 72.1064 10.659V9.92163C72.1064 9.56234 71.9637 9.21777 71.7096 8.96372C71.4556 8.70966 71.111 8.56694 70.7517 8.56694C70.3924 8.56694 70.0479 8.70966 69.7938 8.96372C69.5398 9.21777 69.397 9.56234 69.397 9.92163V9.92277Z" fill="#4C4A4C"/>
<path d="M75.3741 11.4823V5.77805C75.3741 5.68995 75.4136 5.64075 75.5017 5.64075H75.9628C76.0515 5.64075 76.0904 5.68995 76.0904 5.77805V11.4823C76.0904 12.2483 75.5995 12.7294 74.8438 12.7294H73.7048V12.0137H74.8535C75.2168 12.0029 75.3741 11.8358 75.3741 11.4823Z" fill="#4C4A4C"/>
<path d="M78.2695 12.7294H77.7986C77.71 12.7294 77.6705 12.6899 77.6705 12.6013V5.76832C77.6705 5.68022 77.71 5.64075 77.7986 5.64075H78.2695C78.3484 5.64075 78.3873 5.68022 78.3873 5.76832V12.6013C78.3873 12.6899 78.3484 12.7294 78.2695 12.7294Z" fill="#4C4A4C"/>
<path d="M3.34668 24.4325H6.47139V20.7386C6.46522 20.5235 6.50476 20.3097 6.5874 20.111C6.67004 19.9124 6.79391 19.7336 6.9508 19.5864C7.26293 19.2774 7.68438 19.1041 8.12357 19.1041C8.56276 19.1041 8.9842 19.2774 9.29633 19.5864C9.45471 19.733 9.58024 19.9114 9.66465 20.11C9.74906 20.3086 9.79043 20.5228 9.78604 20.7386V23.2803H11.0446V23.9995H9.4262C9.32939 23.9986 9.23673 23.9601 9.16785 23.892C9.09897 23.824 9.05928 23.7318 9.0572 23.635V20.7386C9.0572 20.4923 8.95938 20.2562 8.78526 20.082C8.61113 19.9079 8.37497 19.8101 8.12871 19.8101C7.88246 19.8101 7.6463 19.9079 7.47217 20.082C7.29805 20.2562 7.20022 20.4923 7.20022 20.7386V24.7969C7.19768 24.8928 7.15745 24.9838 7.08827 25.0502C7.01909 25.1166 6.92654 25.153 6.83066 25.1516H3.32666C2.74599 25.1516 2.24885 24.9428 1.81922 24.5315C1.61613 24.3371 1.4554 24.1029 1.34711 23.8435C1.23882 23.5841 1.1853 23.3051 1.18993 23.0241C1.1932 22.6203 1.30687 22.2252 1.51864 21.8814C1.7304 21.5376 2.03219 21.2584 2.3913 21.0738L2.60068 20.9651C2.61877 20.9576 2.63833 20.9543 2.65789 20.9554C2.68246 20.9541 2.70687 20.96 2.72818 20.9723C2.7495 20.9846 2.76681 21.0027 2.77803 21.0246L2.98798 21.4382C2.99778 21.4601 3.00451 21.4832 3.00801 21.5069C3.00867 21.5299 3.00237 21.5526 2.98991 21.572C2.97746 21.5914 2.95944 21.6066 2.93821 21.6156L2.72826 21.7237C2.48782 21.8463 2.28541 22.0322 2.14286 22.2613C2.0003 22.4905 1.92302 22.7542 1.91933 23.0241C1.91876 23.7924 2.56807 24.4325 3.34668 24.4325ZM4.31464 26.2254V26.8067C4.31464 26.8953 4.2746 26.9342 4.18478 26.9342H3.6865C3.59611 26.9342 3.55606 26.8953 3.55606 26.8067V26.2254C3.55606 26.1368 3.59611 26.0876 3.6865 26.0876H4.18478C4.2746 26.087 4.31464 26.1368 4.31464 26.2254ZM5.64244 26.2254V26.8067C5.64244 26.8953 5.60297 26.9342 5.51315 26.9342H5.02345C4.93363 26.9342 4.88386 26.8953 4.88386 26.8067V26.2254C4.88174 26.2066 4.8839 26.1876 4.89018 26.1698C4.89646 26.1519 4.9067 26.1357 4.92013 26.1224C4.93356 26.1091 4.94984 26.099 4.96773 26.0928C4.98562 26.0867 5.00467 26.0847 5.02345 26.087H5.51315C5.60297 26.087 5.64244 26.1368 5.64244 26.2254Z" fill="#4C4A4C"/>
<path d="M12.7277 22.7477V19.4296C12.7257 19.4108 12.7279 19.3919 12.7342 19.3741C12.7405 19.3563 12.7508 19.3402 12.7642 19.327C12.7776 19.3137 12.7939 19.3037 12.8117 19.2976C12.8296 19.2915 12.8485 19.2895 12.8673 19.2917H13.3249C13.3437 19.2895 13.3627 19.2915 13.3805 19.2976C13.3984 19.3037 13.4146 19.3137 13.428 19.327C13.4414 19.3402 13.4517 19.3563 13.458 19.3741C13.4643 19.3919 13.4666 19.4108 13.4645 19.4296V22.7477C13.4645 23.5166 12.9554 23.9994 12.1865 23.9994H10.6911V23.2803H12.2082C12.5681 23.2706 12.7277 23.1121 12.7277 22.7477ZM13.4765 17.4193V18.0005C13.4765 18.0886 13.4268 18.1287 13.337 18.1287H12.8472C12.7574 18.1287 12.718 18.0886 12.718 18.0005V17.4193C12.718 17.3306 12.7574 17.2814 12.8472 17.2814H13.337C13.3557 17.2792 13.3747 17.2812 13.3925 17.2873C13.4104 17.2934 13.4266 17.3034 13.44 17.3167C13.4534 17.3299 13.4637 17.346 13.47 17.3638C13.4763 17.3816 13.4786 17.4005 13.4765 17.4193Z" fill="#4C4A4C"/>
<path d="M18.2071 24.1173V23.9995H16.8398C16.5635 24.0032 16.2893 23.951 16.0337 23.846C15.7781 23.741 15.5463 23.5854 15.3524 23.3885C15.154 23.1996 14.9966 22.9717 14.8901 22.7193C14.7836 22.4668 14.7302 22.1951 14.7334 21.9211V21.182C14.7302 20.908 14.7835 20.6362 14.89 20.3838C14.9965 20.1313 15.1539 19.9035 15.3524 19.7146C15.7486 19.3233 16.283 19.1039 16.8398 19.1039C17.3967 19.1039 17.9311 19.3233 18.3272 19.7146C18.5256 19.9036 18.683 20.1314 18.7895 20.3838C18.896 20.6363 18.9493 20.908 18.9462 21.182V24.1173C18.9486 24.3717 18.8985 24.6237 18.7988 24.8577C18.6992 25.0917 18.5523 25.3026 18.3673 25.4772C18.1865 25.661 17.9704 25.8065 17.732 25.9048C17.4936 26.0031 17.2378 26.0522 16.98 26.0493H15.9411C15.8513 26.0493 15.8112 26.0098 15.8112 25.9211V25.4577C15.8112 25.369 15.8513 25.3296 15.9411 25.3296H16.98C17.6384 25.329 18.2071 24.7672 18.2071 24.1173ZM16.8398 23.2804H18.2071V21.182C18.2033 20.8213 18.0578 20.4766 17.802 20.2224C17.5461 19.9681 17.2005 19.8248 16.8398 19.8233C16.0915 19.8233 15.4622 20.4337 15.4622 21.182V21.9211C15.4622 22.6597 16.0915 23.2804 16.8398 23.2804Z" fill="#4C4A4C"/>
<path d="M21.0206 24.3736V19.4382C21.0187 19.4194 21.021 19.4004 21.0274 19.3827C21.0338 19.3649 21.0441 19.3488 21.0575 19.3356C21.071 19.3223 21.0873 19.3123 21.1051 19.3062C21.123 19.3001 21.142 19.2981 21.1608 19.3003H21.6184C21.6371 19.2982 21.6561 19.3003 21.6739 19.3064C21.6917 19.3125 21.7079 19.3226 21.7213 19.3358C21.7346 19.3491 21.7449 19.3651 21.7513 19.3828C21.7576 19.4006 21.7599 19.4195 21.758 19.4382V23.2803H23.2752V23.9994H21.7597V24.3736C21.7597 25.4176 21.111 26.048 20.0526 26.048H19.5532C19.4634 26.048 19.4233 26.0086 19.4233 25.9199V25.4577C19.4233 25.369 19.4634 25.3295 19.5532 25.3295H20.0526C20.7214 25.3289 21.0206 25.0332 21.0206 24.3736Z" fill="#4C4A4C"/>
<path d="M25.0429 22.7385V19.429C25.0406 19.4111 25.0423 19.3928 25.0478 19.3756C25.0534 19.3583 25.0628 19.3425 25.0752 19.3293C25.0876 19.3162 25.1028 19.3059 25.1197 19.2993C25.1366 19.2927 25.1547 19.2899 25.1728 19.2911H25.6424C25.7323 19.2911 25.7717 19.3398 25.7717 19.429V22.8764C25.769 22.9214 25.7755 22.9664 25.791 23.0088C25.8064 23.0511 25.8304 23.0898 25.8615 23.1224C25.9617 23.2208 26.1613 23.2803 26.4508 23.2803H26.9199V23.9994H26.5807C26.091 23.9994 25.7122 23.8707 25.4725 23.635C25.4725 23.6247 25.4622 23.6247 25.4622 23.6149L25.4222 23.6641C25.1934 23.893 24.8936 23.9994 24.504 23.9994H22.7878V23.2803H24.5246C24.8856 23.2803 25.0429 23.0932 25.0429 22.7385ZM24.3564 18.0005V17.4193C24.3544 17.4005 24.3566 17.3816 24.3629 17.3638C24.3692 17.346 24.3795 17.3299 24.3929 17.3167C24.4063 17.3034 24.4226 17.2934 24.4404 17.2873C24.4583 17.2812 24.4773 17.2792 24.496 17.2814H24.9954C25.0852 17.2814 25.1253 17.3306 25.1253 17.4193V18.0005C25.1253 18.0886 25.0852 18.1287 24.9954 18.1287H24.496C24.4039 18.1287 24.3541 18.0886 24.3541 18.0005H24.3564ZM25.6945 18.0005V17.4193C25.6945 17.3306 25.7345 17.2814 25.8244 17.2814H26.3135C26.3322 17.2792 26.3512 17.2812 26.3691 17.2873C26.3869 17.2934 26.4031 17.3034 26.4166 17.3167C26.43 17.3299 26.4402 17.346 26.4466 17.3638C26.4529 17.3816 26.4551 17.4005 26.4531 17.4193V18.0005C26.4531 18.0886 26.4033 18.1287 26.3135 18.1287H25.8244C25.7323 18.1287 25.6922 18.0886 25.6922 18.0005H25.6945Z" fill="#4C4A4C"/>
<path d="M30.492 17.262H31.3215C31.339 17.2595 31.3567 17.2611 31.3735 17.2666C31.3902 17.272 31.4055 17.2813 31.418 17.2937C31.4306 17.306 31.4402 17.3211 31.4459 17.3377C31.4517 17.3544 31.4536 17.3721 31.4514 17.3896V17.853C31.4514 17.9417 31.4113 17.9909 31.3215 17.9909H30.492C29.4542 17.9909 28.8747 18.5229 28.7655 19.5864H30.6224C31.2609 19.5864 31.7901 19.7929 32.2094 20.2157C32.6287 20.6385 32.8387 21.1711 32.8387 21.8112V22.8753C32.8387 22.9932 32.869 23.0721 32.9291 23.1213C33.0286 23.2197 33.2185 23.2792 33.5177 23.2792H34.0389V23.9983H33.6384C33.1493 23.9983 32.7895 23.8696 32.5515 23.6339L32.5315 23.6139C32.3124 23.8604 31.9926 23.9983 31.5732 23.9983H26.6693V23.2803H31.5612C31.9302 23.2803 32.1104 23.1127 32.1104 22.7386V21.8124C32.1104 20.9257 31.5212 20.3055 30.623 20.3055H28.3867C28.3385 20.306 28.2906 20.297 28.2459 20.279C28.2011 20.2609 28.1604 20.2342 28.1261 20.2003C28.0917 20.1664 28.0644 20.1261 28.0457 20.0816C28.027 20.0371 28.0173 19.9893 28.0172 19.9411C28.0172 18.3255 28.8953 17.262 30.492 17.262Z" fill="#4C4A4C"/>
<path d="M35.4325 22.7477V17.0269C35.4325 16.9382 35.4725 16.889 35.5624 16.889H36.0315C36.1213 16.889 36.1613 16.9382 36.1613 17.0269V22.7477C36.1613 23.5166 35.6619 23.9995 34.893 23.9995H33.7357V23.2803H34.9033C35.2729 23.2706 35.4325 23.103 35.4325 22.7477Z" fill="#4C4A4C"/>
<path d="M41.4811 22.325V17.0252C41.4811 16.9365 41.5212 16.8873 41.6116 16.8873H42.0801C42.1699 16.8873 42.21 16.9365 42.21 17.0252V22.325C42.21 23.3782 41.5709 23.9995 40.5132 23.9995H37.5578C37.468 23.9995 37.4279 23.9503 37.4279 23.8616V23.4085C37.4279 23.3198 37.468 23.2803 37.5578 23.2803H40.5132C41.1819 23.2803 41.4811 22.9846 41.4811 22.325ZM39.1453 25.4668V26.0481H40.1636C40.2237 26.0481 40.2637 26.0773 40.2637 26.1368V26.3433C40.2645 26.3566 40.2624 26.3699 40.2576 26.3823C40.2529 26.3947 40.2455 26.406 40.236 26.4154C40.2266 26.4247 40.2152 26.432 40.2027 26.4366C40.1902 26.4412 40.1769 26.4432 40.1636 26.4422H38.4662C38.409 26.4422 38.3764 26.4028 38.3764 26.3433V26.1368C38.3747 26.1246 38.3758 26.1122 38.3797 26.1006C38.3836 26.0889 38.3902 26.0784 38.3989 26.0697C38.4077 26.0611 38.4183 26.0546 38.43 26.0509C38.4417 26.0471 38.4541 26.0462 38.4662 26.0481H38.746V25.4668C38.7487 25.27 38.8288 25.0821 38.9689 24.9438C39.109 24.8055 39.298 24.7278 39.4949 24.7277C39.8238 24.7277 40.0532 24.8856 40.1814 25.1814L40.2311 25.2798C40.2393 25.2912 40.243 25.3053 40.2414 25.3193C40.2414 25.3582 40.2117 25.3765 40.1716 25.3976L39.9811 25.4771C39.9654 25.4839 39.9484 25.487 39.9314 25.4863C39.8919 25.4863 39.8741 25.4668 39.8518 25.4291L39.8215 25.3404C39.7965 25.2742 39.7512 25.2176 39.6922 25.1787C39.6331 25.1398 39.5632 25.1205 39.4926 25.1236C39.4015 25.1248 39.3145 25.1612 39.2497 25.2252C39.1849 25.2892 39.1475 25.3758 39.1453 25.4668ZM38.9554 22.3347V17.8152C38.9554 17.7266 38.9954 17.6774 39.0852 17.6774H39.5549C39.6447 17.6774 39.6842 17.7266 39.6842 17.8152V22.3347C39.6842 22.4234 39.6447 22.4628 39.5549 22.4628H39.0852C38.9954 22.4628 38.9554 22.4257 38.9554 22.3347Z" fill="#4C4A4C"/>
<path d="M44.4245 23.9995H43.9451C43.8553 23.9995 43.8152 23.9594 43.8152 23.8707V17.0155C43.8152 16.9268 43.8553 16.8873 43.9451 16.8873H44.4245C44.5046 16.8873 44.544 16.9268 44.544 17.0155V23.8707C44.544 23.9594 44.5046 23.9995 44.4245 23.9995Z" fill="#4C4A4C"/>
<path d="M54.6653 23.2803H55.4542V23.9994H54.8055C54.2763 23.9994 53.857 23.7923 53.6076 23.4273C53.2188 23.8008 52.6987 24.0063 52.1596 23.9994H49.6939C49.5186 23.9988 49.3501 24.0676 49.2252 24.1907C49.1004 24.3139 49.0293 24.4814 49.0275 24.6568V25.9863C49.0275 26.0749 48.9777 26.1144 48.8879 26.1144H48.4182C48.3284 26.1144 48.2883 26.0749 48.2883 25.9863V24.6568C48.2883 23.8987 48.9273 23.2683 49.6962 23.2683H50.0555V21.1722C50.0524 20.8981 50.1057 20.6264 50.2122 20.3738C50.3187 20.1213 50.4761 19.8933 50.6745 19.7042C50.8685 19.5075 51.1002 19.352 51.3558 19.2471C51.6115 19.1422 51.8856 19.0901 52.1619 19.0938C52.4367 19.09 52.7095 19.1421 52.9635 19.2471C53.2176 19.352 53.4476 19.5076 53.6396 19.7042C53.8381 19.8933 53.9955 20.1212 54.102 20.3737C54.2085 20.6263 54.2618 20.8981 54.2586 21.1722V21.9211C54.2598 22.2576 54.1777 22.5892 54.0195 22.8862C54.087 23.1425 54.3478 23.2803 54.6653 23.2803ZM50.782 21.1722V23.2706H52.1596C52.3387 23.2725 52.5164 23.2391 52.6826 23.1723C52.8488 23.1055 53.0002 23.0066 53.1282 22.8813C53.2562 22.756 53.3582 22.6067 53.4285 22.4419C53.4988 22.2771 53.5359 22.1002 53.5378 21.9211V21.1722C53.5378 20.4336 52.9085 19.8232 52.1596 19.8232C51.4108 19.8232 50.782 20.4336 50.782 21.1722Z" fill="#4C4A4C"/>
<path d="M57.1894 22.7386V19.4291C57.1873 19.4103 57.1896 19.3913 57.1959 19.3736C57.2022 19.3558 57.2125 19.3397 57.2259 19.3264C57.2393 19.3132 57.2555 19.3031 57.2734 19.297C57.2912 19.2909 57.3102 19.2889 57.329 19.2912H57.7866C57.8053 19.2889 57.8243 19.2909 57.8422 19.297C57.86 19.3031 57.8763 19.3132 57.8897 19.3264C57.9031 19.3397 57.9134 19.3558 57.9197 19.3736C57.926 19.3913 57.9282 19.4103 57.9262 19.4291V22.8764C57.9218 22.9207 57.9266 22.9655 57.9404 23.0079C57.9542 23.0502 57.9766 23.0892 58.0063 23.1224C58.1058 23.2208 58.3061 23.2803 58.5955 23.2803H59.0647V23.9994H58.7248C58.2357 23.9994 57.8667 23.8707 57.627 23.635C57.6173 23.6247 57.607 23.6247 57.607 23.615C57.6008 23.6334 57.5906 23.6501 57.5772 23.6642C57.3484 23.893 57.0378 23.9994 56.6482 23.9994H55.1528V23.2803H56.6699C57.0298 23.2803 57.1894 23.103 57.1894 22.7386ZM56.8078 25.0732V25.6453C56.8078 25.734 56.7672 25.7832 56.6779 25.7832H56.1791C56.0893 25.7832 56.0486 25.734 56.0486 25.6453V25.0732C56.0486 24.9846 56.0893 24.9354 56.1791 24.9354H56.6779C56.7695 24.9354 56.8078 24.9846 56.8078 25.0732ZM58.1453 25.0732V25.6453C58.1473 25.6641 58.1451 25.683 58.1388 25.7008C58.1325 25.7186 58.1222 25.7347 58.1088 25.7479C58.0954 25.7612 58.0791 25.7712 58.0613 25.7773C58.0435 25.7834 58.0245 25.7854 58.0057 25.7832H57.516C57.4973 25.7854 57.4783 25.7834 57.4605 25.7773C57.4426 25.7712 57.4264 25.7612 57.413 25.7479C57.3995 25.7347 57.3893 25.7186 57.383 25.7008C57.3766 25.683 57.3744 25.6641 57.3764 25.6453V25.0732C57.3744 25.0545 57.3766 25.0355 57.383 25.0177C57.3893 25 57.3995 24.9839 57.413 24.9706C57.4264 24.9573 57.4426 24.9473 57.4605 24.9412C57.4783 24.9351 57.4973 24.9331 57.516 24.9354H58.0092C58.0278 24.9333 58.0467 24.9354 58.0644 24.9416C58.0821 24.9478 58.0982 24.9579 58.1114 24.9711C58.1247 24.9843 58.1349 25.0004 58.1411 25.018C58.1474 25.0357 58.1496 25.0546 58.1476 25.0732H58.1453Z" fill="#4C4A4C"/>
<path d="M60.5624 22.7386V17.0252C60.5624 16.9365 60.6024 16.8873 60.6922 16.8873H61.1613C61.2511 16.8873 61.2912 16.9365 61.2912 17.0252V22.8765C61.2912 22.9943 61.3209 23.0733 61.381 23.1225C61.4806 23.2209 61.6802 23.2803 61.9703 23.2803H62.4788V23.9995H62.0898C61.5807 23.9995 61.2317 23.8616 60.9817 23.615C60.9708 23.6333 60.9573 23.6498 60.9417 23.6642C60.722 23.893 60.4125 23.9995 60.0263 23.9995H58.8181V23.2803H60.0361C60.3925 23.2803 60.5624 23.103 60.5624 22.7386Z" fill="#4C4A4C"/>
<path d="M69.0171 23.9994H62.179V23.2803H64.4948L63.5166 21.2208C63.4971 21.1707 63.487 21.1173 63.4868 21.0635V21.0137C63.5566 20.5218 63.7958 20.0881 64.2157 19.714C64.6647 19.2998 65.1636 19.0933 65.7231 19.0933C66.2803 19.0932 66.8176 19.3004 67.2305 19.6745C67.6693 20.0584 67.9096 20.5115 67.9594 21.0338V21.0732C67.9589 21.1239 67.9488 21.174 67.9296 21.2208L66.9508 23.2803H69.0171V23.9994ZM64.754 20.1945C64.4851 20.4314 64.3055 20.7094 64.2357 21.012L65.3038 23.278H66.1522L67.2197 21.0046C67.1693 20.6802 66.9994 20.4039 66.7002 20.1774C66.4262 19.9474 66.0796 19.8219 65.7219 19.8232C65.3736 19.8232 65.0543 19.9508 64.754 20.1945Z" fill="#4C4A4C"/>
<path d="M70.9725 22.7385V19.429C70.9702 19.4111 70.9719 19.3929 70.9775 19.3757C70.983 19.3585 70.9923 19.3428 71.0047 19.3296C71.017 19.3164 71.0321 19.3061 71.0489 19.2995C71.0657 19.2928 71.0838 19.29 71.1018 19.2911H71.5715C71.6613 19.2911 71.7008 19.3398 71.7008 19.429V22.8764C71.698 22.9214 71.7046 22.9664 71.72 23.0088C71.7355 23.0511 71.7595 23.0898 71.7906 23.1224C71.8907 23.2208 72.0898 23.2803 72.3799 23.2803H72.849V23.9994H72.5097C72.02 23.9994 71.6413 23.8707 71.401 23.635C71.401 23.6247 71.3913 23.6247 71.3913 23.6149L71.3513 23.6641C71.1224 23.893 70.8227 23.9994 70.4359 23.9994H68.7197V23.2803H70.4565C70.8124 23.2803 70.9725 23.0932 70.9725 22.7385ZM70.286 18.0005V17.4193C70.2841 17.4006 70.2864 17.3816 70.2928 17.3639C70.2992 17.3462 70.3094 17.3301 70.3228 17.3169C70.3362 17.3037 70.3524 17.2936 70.3702 17.2875C70.388 17.2813 70.4069 17.2793 70.4256 17.2814H70.9251C71.0149 17.2814 71.0549 17.3306 71.0549 17.4193V18.0005C71.0549 18.0886 71.0149 18.1287 70.9251 18.1287H70.4233C70.3335 18.1287 70.2832 18.0886 70.2832 18.0005H70.286ZM71.6241 18.0005V17.4193C71.6241 17.3306 71.6642 17.2814 71.754 17.2814H72.2431C72.2619 17.2792 72.2809 17.2812 72.2987 17.2873C72.3165 17.2934 72.3328 17.3034 72.3462 17.3167C72.3596 17.3299 72.3699 17.346 72.3762 17.3638C72.3825 17.3816 72.3848 17.4005 72.3827 17.4193V18.0005C72.3827 18.0886 72.333 18.1287 72.2431 18.1287H71.754C71.6613 18.1287 71.6213 18.0886 71.6213 18.0005H71.6241Z" fill="#4C4A4C"/>
<path d="M74.345 22.7386V17.0252C74.345 16.9365 74.385 16.8873 74.4748 16.8873H74.9428C75.0332 16.8873 75.0732 16.9365 75.0732 17.0252V22.8765C75.0732 22.9943 75.103 23.0733 75.163 23.1225C75.2626 23.2209 75.4622 23.2803 75.7517 23.2803H76.2609V23.9995H75.8718C75.3627 23.9995 75.0137 23.8616 74.7637 23.615C74.7528 23.6333 74.7393 23.6498 74.7237 23.6642C74.504 23.893 74.1945 23.9995 73.8083 23.9995H72.5972V23.2803H73.8152C74.175 23.2803 74.345 23.103 74.345 22.7386Z" fill="#4C4A4C"/>
<path d="M77.6585 22.7477V17.0269C77.6585 16.9382 77.6985 16.889 77.7883 16.889H78.2574C78.3472 16.889 78.3873 16.9382 78.3873 17.0269V22.7477C78.3873 23.5166 77.8879 23.9995 77.119 23.9995H75.9617V23.2803H77.1293C77.4989 23.2706 77.6585 23.103 77.6585 22.7477Z" fill="#4C4A4C"/>
<path d="M1.51659 29.5887C1.52975 29.6882 1.53776 30.6567 1.53776 30.8226L1.54462 33.6098H1.04405L1.03719 28.9582H1.77117L3.32208 31.9022C3.36785 31.9948 3.81465 32.8507 3.85412 32.9496H3.89989C3.88673 32.8101 3.88501 31.8055 3.88501 31.7019L3.88101 28.9559H4.37243L4.37929 33.6075H3.65847L2.09439 30.6424C2.04863 30.5498 1.60812 29.7014 1.56865 29.5887H1.51659Z" fill="#4C4A4C"/>
<path d="M7.85526 31.0321V32.6648C7.85526 32.9898 7.9548 33.2083 8.20366 33.2083H8.29576V33.5864C8.2386 33.6142 8.17565 33.6279 8.11213 33.6265C7.75801 33.6265 7.54805 33.4348 7.46281 33.1894H7.43707C7.26544 33.3885 6.9794 33.6745 6.37643 33.6751C5.71453 33.6751 5.34668 33.206 5.34668 32.7152C5.34668 31.9188 6.11785 31.5258 7.38272 31.5435V31.1522C7.38272 30.5618 7.09954 30.3896 6.62814 30.3902C6.15675 30.3908 5.92048 30.6568 5.81636 30.8296L5.44222 30.5315C5.56636 30.3599 5.89988 29.94 6.64016 29.9388C7.4016 29.9377 7.85412 30.2752 7.85526 31.0321ZM7.38501 31.9474C6.52689 31.9154 5.85183 32.1288 5.85297 32.6728C5.85297 32.9915 6.08181 33.2501 6.49599 33.2495C6.67312 33.2454 6.84662 33.1985 7.00164 33.1127C7.15667 33.0269 7.2886 32.9048 7.38615 32.7569L7.38501 31.9474Z" fill="#4C4A4C"/>
<path d="M9.22768 32.6356L9.22425 30.4045H8.69336V30.0721L9.22425 29.972L9.38215 29.0389H9.7254V29.988H10.7082V30.4062H9.7254L9.72883 32.6087C9.72883 33.0138 9.93306 33.1808 10.2471 33.1808C10.5332 33.1808 10.6997 33.1139 10.7912 33.0538L10.9359 33.4651C10.7981 33.5452 10.5624 33.6316 10.135 33.6322C9.55034 33.631 9.22883 33.3193 9.22768 32.6356Z" fill="#4C4A4C"/>
<path d="M12 28.5503C12.0505 28.5484 12.1008 28.5566 12.148 28.5746C12.1953 28.5925 12.2384 28.6198 12.2748 28.6548C12.3112 28.6899 12.3402 28.7319 12.3599 28.7783C12.3797 28.8248 12.3899 28.8748 12.3899 28.9253C12.3899 28.9759 12.3797 29.0258 12.3599 29.0723C12.3402 29.1188 12.3112 29.1608 12.2748 29.1958C12.2384 29.2308 12.1953 29.2582 12.148 29.2761C12.1008 29.2941 12.0505 29.3023 12 29.3003C11.9031 29.2965 11.8114 29.2554 11.7441 29.1855C11.6769 29.1156 11.6394 29.0223 11.6394 28.9253C11.6394 28.8283 11.6769 28.7351 11.7441 28.6652C11.8114 28.5953 11.9031 28.5541 12 28.5503ZM11.7797 29.9845H12.2906L12.2958 33.5944H11.7849L11.7797 29.9845Z" fill="#4C4A4C"/>
<path d="M13.3158 31.7934C13.3158 30.679 13.7254 29.9147 14.8066 29.9136C15.8879 29.9124 16.2695 30.6539 16.2706 31.7557C16.2706 32.8707 15.8541 33.6481 14.7729 33.6493C13.6917 33.6504 13.3175 32.9016 13.3158 31.7934ZM14.8118 33.1979C15.4983 33.1979 15.7483 32.7402 15.7466 31.7963C15.7466 30.8278 15.4565 30.3569 14.7683 30.3581C14.0933 30.3581 13.8387 30.8157 13.8398 31.7528C13.8444 32.7231 14.1304 33.199 14.8118 33.1979Z" fill="#4C4A4C"/>
<path d="M19.865 33.5812H19.3536L19.3501 31.2122C19.3501 30.6613 19.0801 30.3541 18.5824 30.3575C18.3828 30.3584 18.1884 30.4213 18.0262 30.5377C17.864 30.654 17.7421 30.818 17.6773 31.0068L17.6814 33.5881H17.1699L17.1648 29.9782H17.5509L17.6568 30.3564H17.6831C17.8101 30.2128 17.9664 30.0982 18.1415 30.0201C18.3165 29.9421 18.5063 29.9024 18.6979 29.9038C19.4119 29.9038 19.8387 30.2934 19.8593 31.0966L19.865 33.5812Z" fill="#4C4A4C"/>
<path d="M23.2426 31.0069V32.6396C23.2426 32.9645 23.3415 33.1836 23.591 33.1831H23.6842V33.5612C23.6273 33.5893 23.5645 33.603 23.5011 33.6013C23.147 33.6013 22.9371 33.4096 22.8518 33.1642H22.8261C22.6545 33.3638 22.3684 33.6493 21.7654 33.6505C21.1041 33.6505 20.7357 33.1808 20.7357 32.6899C20.7357 31.8936 21.5074 31.5006 22.7723 31.5189V31.127C22.7723 30.5366 22.4863 30.3644 22.0172 30.365C21.548 30.3656 21.3101 30.6316 21.2054 30.8043L20.8312 30.5063C20.9559 30.3347 21.2889 29.9153 22.0297 29.9142C22.7889 29.9148 23.2414 30.2523 23.2426 31.0069ZM22.7723 31.9222C21.9142 31.8907 21.2391 32.1041 21.2397 32.6482C21.2397 32.9668 21.4685 33.2248 21.8827 33.2243C22.0599 33.2203 22.2336 33.1734 22.3887 33.0876C22.5438 33.0018 22.6758 32.8797 22.7734 32.7317L22.7723 31.9222Z" fill="#4C4A4C"/>
<path d="M25.0412 28.5377L25.0475 32.7179C25.0475 33.0366 25.1527 33.1756 25.4216 33.1756C25.5243 33.1749 25.6253 33.1496 25.7162 33.1018V33.54C25.5745 33.5961 25.423 33.6234 25.2706 33.6201C24.7797 33.6201 24.5429 33.3295 24.5423 32.8581L24.536 28.5383L25.0412 28.5377Z" fill="#4C4A4C"/>
<path d="M30.778 33.2866C30.5423 33.4662 30.1688 33.6127 29.6579 33.6138C28.6425 33.6138 28.091 33.0915 28.0892 31.7443C28.0892 30.4371 28.8072 29.8987 29.6001 29.8976C30.4451 29.8976 30.8982 30.4531 30.8993 31.3089C30.8981 31.5175 30.8853 31.7259 30.861 31.9331L28.5938 31.9365C28.6413 32.8255 29.0086 33.163 29.7225 33.1619C30.0767 33.1619 30.3976 33.0217 30.5481 32.889L30.778 33.2866ZM28.5995 31.5131L30.3884 31.5103C30.3953 31.4376 30.3947 31.345 30.3947 31.3049C30.3947 30.6876 30.131 30.3432 29.5549 30.3438C29.087 30.3432 28.6419 30.6424 28.5973 31.5114L28.5995 31.5131Z" fill="#4C4A4C"/>
<path d="M32.4273 28.9114L32.4336 33.0916L34.4062 33.0887V33.5601L31.9096 33.5636L31.9022 28.9119L32.4273 28.9114Z" fill="#4C4A4C"/>
<path d="M37.5521 33.2763C37.3164 33.456 36.9428 33.6024 36.4319 33.6036C35.4159 33.6036 34.865 33.0818 34.8627 31.734C34.8627 30.4268 35.5807 29.8885 36.3741 29.8873C37.2191 29.8873 37.6722 30.4428 37.6733 31.2987C37.6718 31.5072 37.659 31.7156 37.635 31.9228L35.3678 31.9262C35.4148 32.8152 35.7826 33.1528 36.4966 33.1516C36.8507 33.1516 37.1716 33.0115 37.3221 32.8787L37.5521 33.2763ZM35.3736 31.5029H37.1625C37.1688 31.4297 37.1688 31.337 37.1688 31.2969C37.1688 30.6797 36.905 30.3353 36.3284 30.3364C35.8633 30.333 35.4182 30.6322 35.3736 31.5012V31.5029Z" fill="#4C4A4C"/>
<path d="M40.9233 30.9822V32.6144C40.9233 32.9399 41.0229 33.1584 41.2717 33.1578H41.3633V33.536C41.3064 33.564 41.2436 33.5778 41.1802 33.576C40.8261 33.576 40.6161 33.3844 40.5303 33.139H40.5046C40.333 33.338 40.0469 33.6235 39.4439 33.6247C38.782 33.6247 38.4142 33.155 38.4142 32.6641C38.4142 31.8678 39.1854 31.4748 40.4502 31.4931V31.1012C40.4502 30.5108 40.1642 30.3386 39.6951 30.3392C39.226 30.3398 38.9897 30.6064 38.885 30.778L38.5114 30.4799C38.6356 30.3083 38.9691 29.889 39.7094 29.8878C40.4697 29.8878 40.9222 30.2253 40.9233 30.9822ZM40.4531 31.8975C39.595 31.8655 38.9199 32.0789 38.9211 32.6229C38.9211 32.9416 39.1499 33.1996 39.5635 33.199C39.7407 33.195 39.9143 33.1481 40.0695 33.0623C40.2246 32.9766 40.3566 32.8544 40.4542 32.7065L40.4531 31.8975Z" fill="#4C4A4C"/>
<path d="M43.9634 30.4462C43.8332 30.4092 43.6983 30.3917 43.5629 30.3941C43.2157 30.3941 42.8553 30.5343 42.6854 30.8598L42.6894 33.5486H42.1854L42.1802 29.9388H42.5669L42.6785 30.3392H42.7048C42.8621 30.0806 43.1894 29.8816 43.6018 29.8816C43.7228 29.8779 43.8439 29.8888 43.9622 29.9142L43.9634 30.4462Z" fill="#4C4A4C"/>
<path d="M47.2443 33.5406H46.7334L46.73 31.1716C46.73 30.6207 46.4599 30.3163 45.9622 30.3169C45.7635 30.3179 45.5699 30.3804 45.4082 30.4958C45.2464 30.6113 45.1244 30.774 45.0589 30.9616L45.0624 33.5434H44.5515L44.5458 29.9336H44.9325L45.0378 30.3112H45.0641C45.1915 30.1679 45.3479 30.0535 45.523 29.9755C45.6981 29.8974 45.8878 29.8576 46.0795 29.8587C46.7935 29.8587 47.2202 30.2488 47.2408 31.0515L47.2443 33.5406Z" fill="#4C4A4C"/>
<path d="M48.6985 28.4948C48.749 28.4928 48.7993 28.5011 48.8466 28.519C48.8938 28.537 48.9369 28.5643 48.9733 28.5993C49.0097 28.6343 49.0387 28.6763 49.0585 28.7228C49.0782 28.7693 49.0884 28.8193 49.0884 28.8698C49.0884 28.9203 49.0782 28.9703 49.0585 29.0168C49.0387 29.0633 49.0097 29.1053 48.9733 29.1403C48.9369 29.1753 48.8938 29.2026 48.8466 29.2206C48.7993 29.2385 48.749 29.2468 48.6985 29.2448C48.6016 29.241 48.5099 29.1998 48.4427 29.1299C48.3754 29.06 48.3379 28.9668 48.3379 28.8698C48.3379 28.7728 48.3754 28.6796 48.4427 28.6097C48.5099 28.5397 48.6016 28.4986 48.6985 28.4948ZM48.4783 29.9284H48.9891L48.9943 33.5383H48.4834L48.4783 29.9284Z" fill="#4C4A4C"/>
<path d="M52.8999 33.532H52.389L52.385 31.163C52.385 30.6121 52.1156 30.3049 51.6173 30.3084C51.4186 30.3095 51.2251 30.372 51.0634 30.4875C50.9016 30.6029 50.7796 30.7656 50.714 30.9531L50.718 33.5349H50.2065L50.2014 29.9251H50.5881L50.6934 30.3026H50.7197C50.8469 30.1594 51.0033 30.0449 51.1783 29.9669C51.3533 29.8888 51.5429 29.849 51.7346 29.8501C52.4485 29.8501 52.8753 30.2403 52.8959 31.0429L52.8999 33.532Z" fill="#4C4A4C"/>
<path d="M56.5303 33.5532C56.5303 34.5017 55.9582 34.9742 55.0646 34.9754C54.3896 34.9754 54.0349 34.7379 53.8913 34.5921L54.1854 34.1802C54.3627 34.3592 54.643 34.5183 55.123 34.5177C55.7717 34.5177 56.0332 34.1973 56.0326 33.5537V33.2219H56.0069C55.8959 33.3215 55.5944 33.508 55.1356 33.508C54.4022 33.508 53.7786 33.0452 53.7769 31.818C53.7769 30.6636 54.3307 29.8861 55.5103 29.8844C55.9622 29.8844 56.3112 29.9628 56.5263 30.0686L56.5303 33.5532ZM55.4376 30.3363C54.7511 30.3363 54.2935 30.794 54.2935 31.7511C54.2935 32.7866 54.7672 33.0577 55.2717 33.0572C55.5532 33.0572 55.8547 32.9302 56.0246 32.7042L56.0212 30.4347C55.8344 30.3663 55.6365 30.3329 55.4376 30.3363Z" fill="#4C4A4C"/>
<path d="M61.2351 28.8009C61.9365 28.8009 62.3038 29.052 62.4548 29.1842L62.1276 29.5892C61.9308 29.4239 61.6619 29.278 61.1836 29.2786C60.3827 29.2786 59.8936 29.8718 59.8953 31.1853C59.8953 32.4439 60.3639 33.1024 61.242 33.1012C61.7071 33.1012 61.9754 32.9742 62.139 32.8152L62.4251 33.1928C62.222 33.3919 61.8227 33.5852 61.1665 33.5864C59.9016 33.5864 59.3564 32.667 59.3541 31.2334C59.3558 29.7065 60.0114 28.8026 61.2351 28.8009Z" fill="#4C4A4C"/>
<path d="M65.7323 33.2339C65.4971 33.413 65.1236 33.56 64.6127 33.5606C63.5967 33.5606 63.0458 33.0389 63.0435 31.6916C63.0435 30.3844 63.7615 29.8455 64.5544 29.8444C65.3999 29.8444 65.8524 30.3999 65.8541 31.2563C65.8526 31.4647 65.8398 31.6728 65.8158 31.8798L63.5481 31.8833C63.5955 32.7729 63.9634 33.1104 64.6774 33.1092C65.0315 33.1092 65.3518 32.9691 65.5029 32.8358L65.7323 33.2339ZM63.5544 31.4605H65.3433C65.3495 31.3878 65.3496 31.2946 65.3496 31.2545C65.3496 30.6378 65.0858 30.2929 64.5092 30.294C64.0423 30.29 63.5973 30.5892 63.5526 31.4588L63.5544 31.4605Z" fill="#4C4A4C"/>
<path d="M69.4863 33.5068H68.9754L68.972 31.1378C68.972 30.5869 68.7019 30.2826 68.2037 30.2831C68.005 30.2842 67.8115 30.3468 67.6498 30.4623C67.488 30.5777 67.366 30.7403 67.3003 30.9279L67.3043 33.5097H66.7929L66.7878 29.8998H67.1739L67.2797 30.278H67.3055C67.4329 30.1347 67.5893 30.0203 67.7644 29.9423C67.9395 29.8642 68.1292 29.8244 68.3209 29.8255C69.0355 29.8255 69.4617 30.2156 69.4823 31.0183L69.4863 33.5068Z" fill="#4C4A4C"/>
<path d="M70.6648 32.5429L70.6613 30.3118H70.1304V29.98L70.6613 29.8793L70.8169 28.9434H71.1642V29.8924H72.1476V30.3106H71.1648V32.5137C71.1648 32.9182 71.369 33.0858 71.6836 33.0858C71.9697 33.0858 72.1356 33.0189 72.2271 32.9594L72.3719 33.3701C72.2346 33.4502 71.9989 33.5366 71.5709 33.5372C70.9874 33.5378 70.6653 33.2265 70.6648 32.5429Z" fill="#4C4A4C"/>
<path d="M75.5481 33.2191C75.3124 33.3981 74.9388 33.5451 74.4279 33.5457C73.4119 33.5457 72.861 33.024 72.8587 31.6767C72.8587 30.3695 73.5767 29.8306 74.3696 29.8295C75.2151 29.8295 75.6676 30.385 75.6693 31.2414C75.6673 31.4498 75.6539 31.658 75.6293 31.8649L73.3616 31.8684C73.409 32.758 73.7769 33.0955 74.4909 33.0943C74.8444 33.0943 75.1653 32.9542 75.3158 32.8209L75.5481 33.2191ZM73.3696 31.4456H75.1585C75.1648 31.3729 75.1648 31.2797 75.1648 31.2397C75.1648 30.6229 74.901 30.278 74.3244 30.2791C73.8593 30.2751 73.4136 30.5743 73.3696 31.4439V31.4456Z" fill="#4C4A4C"/>
<path d="M78.3873 30.3942C78.2571 30.3573 78.1222 30.3395 77.9868 30.3416C77.6396 30.3416 77.2798 30.4823 77.1098 30.8072L77.1138 33.496H76.6093L76.6041 29.8862H76.9903L77.1047 30.2866H77.131C77.2878 30.0281 77.615 29.829 78.028 29.829C78.149 29.826 78.27 29.8369 78.3884 29.8616L78.3873 30.3942Z" fill="#4C4A4C"/>
<path d="M84.163 8.24711C84.179 8.24826 84.1951 8.24826 84.2111 8.24711C84.2401 8.24879 84.269 8.24182 84.294 8.22709C84.3065 8.21755 84.3165 8.2052 84.3232 8.19105L84.2254 8.10066C83.5008 7.43132 82.7824 6.75893 82.0704 6.0835V8.23338L82.8375 8.23796C83.2786 8.24311 83.722 8.21794 84.163 8.24711Z" fill="#43B766"/>
<path d="M84.2963 12.4988C84.2963 12.4988 84.3175 12.4914 84.3198 12.4771C84.3221 12.4628 84.3015 12.4485 84.2935 12.4434C84.2811 12.4358 84.2673 12.4311 84.2529 12.4296C84.2058 12.4222 84.158 12.4201 84.1104 12.4233C84.04 12.4342 83.274 12.4371 82.0704 12.4353V14.5738L84.2963 12.4988Z" fill="#43B766"/>
<path d="M89.5584 1.06689H88.7717C88.7717 1.0709 88.7717 1.0749 88.7717 1.07891V1.06689H82.0704C82.0658 1.06689 82.0749 1.06689 82.0704 1.06689C82.0658 1.06689 82.0749 1.0749 82.0704 1.0812C82.0658 1.08749 82.0704 1.09092 82.0704 1.09607V1.1058C82.0704 1.53657 82.0704 2.03943 82.0704 2.51026V3.24596C82.0704 3.6979 82.0704 4.28143 82.0704 4.68131L82.6001 5.17959C83.3896 5.92368 84.1793 6.66453 84.9691 7.40213C85.0204 7.43827 85.0669 7.48075 85.1076 7.52857C85.1511 7.5822 85.1881 7.64076 85.218 7.70305C85.2571 7.77482 85.2889 7.85033 85.3129 7.92845C85.361 8.09447 85.3648 8.2702 85.3239 8.43812C85.2829 8.60605 85.1987 8.76032 85.0795 8.88555C84.9725 9.00186 84.8431 9.0954 84.6991 9.16057C84.5551 9.22574 84.3994 9.2612 84.2414 9.26484L82.0675 9.25683V11.4119L83.2185 11.4067L84.1911 11.4016C84.2111 11.4016 84.2386 11.4016 84.2712 11.4067C84.3426 11.4123 84.4135 11.4228 84.4834 11.4382C84.5814 11.4606 84.6761 11.4952 84.7654 11.5412C85.0047 11.6667 85.1892 11.8761 85.2838 12.1293C85.3437 12.2897 85.3613 12.4629 85.3347 12.6321C85.3063 12.7983 85.2384 12.9553 85.1367 13.0898C85.1012 13.1355 85.063 13.179 85.0223 13.2202C84.9119 13.3366 84.7944 13.4461 84.6705 13.548C84.5263 13.6659 83.8587 14.274 82.0704 15.9754C82.0847 15.9851 82.0561 15.9954 82.0704 16.0051C82.0509 15.992 82.0744 15.9782 82.0704 15.9754V18.2122C85.3026 21.0474 86.3215 22.0314 86.5646 22.3392C86.8444 22.6939 87.242 22.9382 87.5658 23.2545C87.5894 23.2777 87.618 23.2951 87.6493 23.3055C87.6721 23.3151 87.6968 23.3194 87.7215 23.3181C87.7462 23.3167 87.7702 23.3096 87.7918 23.2974C87.8063 23.2869 87.8182 23.2732 87.8267 23.2574C87.8026 18.7488 87.7866 15.8369 87.7826 15.7906C87.7826 15.766 87.7792 15.7414 87.7792 15.7162C87.7792 15.6773 87.7838 15.6739 87.7792 15.6636C87.7637 15.6235 87.6911 15.6064 87.6344 15.6172C87.6055 15.623 87.5786 15.6364 87.5566 15.6561C86.27 16.7477 85.7717 17.1716 85.5835 17.3341L85.1957 17.6664L84.865 17.9485L84.6808 18.1047C84.46 17.8472 84.2395 17.5896 84.0195 17.3318C84.1076 17.2574 84.2328 17.1441 84.3942 17.008C84.766 16.6928 84.9199 16.5595 85.5383 16.032C86.0898 15.56 86.4273 15.2723 86.5338 15.1813L86.9491 14.8278C86.9897 14.7973 87.0324 14.7696 87.0767 14.7448C87.2131 14.6698 87.363 14.6224 87.5177 14.6052C87.6244 14.5939 87.732 14.596 87.8381 14.6115C88.0161 14.6343 88.1864 14.6984 88.3352 14.7986C88.3644 14.8203 88.3987 14.8489 88.3987 14.8489C88.456 14.8947 88.5011 14.9382 88.5223 14.9593C88.6052 15.0445 88.6721 15.1439 88.7197 15.2528C88.7661 15.3619 88.7941 15.4779 88.8026 15.5961C88.81 15.6654 88.8119 15.7352 88.8084 15.8049C88.8141 16.3621 88.8169 16.8135 88.8181 17.1207C88.8181 17.3684 88.8181 17.5183 88.8221 18.1161C88.8221 18.6127 88.8267 18.9942 88.8278 19.2139C88.8278 19.4811 88.8318 19.7557 88.8352 20.3752C88.8352 20.417 88.8404 21.159 88.8433 21.6264C88.8433 22.0011 88.8495 22.552 88.8547 23.2339C88.8564 23.2773 88.8553 23.3206 88.8513 23.3638C88.8282 23.5645 88.7506 23.755 88.627 23.9147C88.5938 23.9555 88.5577 23.9937 88.5189 24.0291C88.3848 24.1488 88.2265 24.2383 88.0549 24.2917C87.8374 24.3575 87.6058 24.3615 87.3862 24.3032C87.2018 24.2505 87.0322 24.1557 86.8907 24.0263C85.5807 22.8752 83.5223 20.9061 83.5223 20.9061C83.1219 20.5234 82.7059 20.1481 82.7059 20.1481C82.4422 19.9101 82.2208 19.7179 82.0721 19.5904V22.8089L87.3381 27.5C87.3997 27.5582 87.4555 27.6224 87.5046 27.6916C87.5548 27.7629 87.5968 27.8397 87.6299 27.9204C87.693 28.0734 87.716 28.24 87.6968 28.4044C87.6721 28.5825 87.6007 28.7509 87.4897 28.8924C87.4265 28.9799 87.3518 29.0586 87.2677 29.1264C86.704 29.6458 86.1371 30.1662 85.5669 30.6876C85.2561 30.9706 84.9457 31.2528 84.6356 31.5343C84.746 31.6224 84.8987 31.7368 85.0887 31.8598C85.4231 32.0713 85.7762 32.2517 86.1436 32.3987C86.6009 32.5868 87.0769 32.7258 87.5635 32.8135C87.8957 32.8683 88.2315 32.8983 88.5681 32.9033H89.5601L89.5584 1.06689ZM88.8146 3.32776C88.8146 3.4622 88.8146 3.50454 88.8146 3.79115C88.8146 4.12811 88.8146 4.09435 88.8146 4.32548C88.8146 4.47536 88.8146 4.53085 88.8146 4.79401V5.15442C88.8146 5.18074 88.8146 5.21163 88.8078 5.25111C88.8039 5.28689 88.798 5.32241 88.7901 5.35751C88.7736 5.43027 88.7488 5.50091 88.7163 5.56804C88.6952 5.61247 88.6709 5.65529 88.6436 5.69619C88.5888 5.77975 88.5223 5.85507 88.4462 5.91987C88.4072 5.95241 88.3661 5.98241 88.3232 6.00969C88.2918 6.03028 88.266 6.04458 88.2534 6.05145C88.2409 6.05831 88.1962 6.08291 88.139 6.10866C88.0727 6.13623 88.0042 6.15824 87.9342 6.17445C87.8377 6.19567 87.739 6.20528 87.6402 6.20305C87.4588 6.2046 87.2797 6.16199 87.1184 6.07891C87.0347 6.03368 86.9577 5.97708 86.8896 5.91072C86.79 5.83062 86.639 5.70877 86.4571 5.55603C86.2552 5.3844 86.1093 5.25911 86.0509 5.2082C85.7077 4.91014 84.9514 4.28143 84.9514 4.28143C84.7002 4.07262 84.3507 3.77799 83.9045 3.39127C83.9479 3.33406 83.9828 3.29401 84.0052 3.2677C84.2088 3.02056 84.3129 2.91415 84.5149 2.66472L84.5584 2.61094L87.5658 5.1487C87.5822 5.16365 87.6018 5.17478 87.623 5.18131C87.6532 5.18878 87.6849 5.18759 87.7145 5.17788C87.7405 5.17382 87.7643 5.16064 87.7815 5.14069C87.7902 5.12667 87.7944 5.11028 87.7935 5.09378C87.7935 5.04172 87.7935 4.17845 87.7935 2.99824H88.8141V3.00282C88.8141 3.07319 88.8141 3.14012 88.8141 3.14012C88.8181 3.23566 88.8175 3.30545 88.8175 3.32776H88.8146Z" fill="#43B766"/>
<path d="M86.0944 28.813L86.2557 28.6654L86.5177 28.4234L86.5749 28.369L86.5978 28.3484C86.6053 28.3416 86.6482 28.3044 86.655 28.2912C86.6571 28.288 86.6594 28.285 86.6619 28.2821C86.6635 28.2804 86.6649 28.2785 86.6659 28.2763C86.6659 28.2763 86.6659 28.2712 86.6573 28.2666C86.5841 28.2048 86.4714 28.1087 86.3347 27.9903C85.6796 27.4228 85.2122 26.9771 85.0955 26.8667C84.7048 26.4972 83.889 25.7723 82.0669 24.1665C82.0669 24.3725 82.0669 24.5618 82.0669 24.7683V25.4789C82.0669 25.7517 82.0669 25.8667 82.0669 26.0876C82.0669 26.1779 82.0669 26.3787 82.0669 26.4463C82.0743 26.811 82.1114 27.1745 82.1779 27.5332C82.3818 28.6229 82.8587 29.643 83.5641 30.4983C83.6785 30.635 83.7803 30.75 83.8661 30.8416C84.9731 29.8324 85.7792 29.0967 85.905 28.9817L86.0944 28.813Z" fill="#43B766"/>
<path d="M95.5532 9.31466H95.1756C94.9828 9.31466 94.9868 9.31466 94.976 9.31466C94.7844 9.30087 94.5988 9.24207 94.4342 9.14304C94.3256 9.07735 94.2289 8.99379 94.1482 8.8959C94.0513 8.77859 93.9803 8.64211 93.9399 8.49544C93.9029 8.35229 93.8969 8.2029 93.9222 8.05722C93.946 7.91946 93.9978 7.78804 94.0744 7.67107C94.1053 7.62474 94.1402 7.58111 94.1785 7.54063C94.4073 7.30208 96.2952 5.56237 96.4199 5.45082C96.1359 4.80989 95.762 4.21273 95.3095 3.67736C95.2294 3.5824 95.159 3.50574 95.1075 3.44853C94.4725 4.00993 93.8284 4.57057 93.175 5.13045C92.8737 5.38827 92.5728 5.64437 92.2723 5.89876C92.2285 5.93882 92.1814 5.97518 92.1316 6.00745C92.0085 6.08514 91.8712 6.13747 91.7277 6.16134C91.591 6.19068 91.45 6.19495 91.3118 6.17393C91.102 6.13605 90.9052 6.04572 90.7397 5.91134C90.6989 5.88261 90.6606 5.85046 90.6253 5.81523C90.518 5.70094 90.4395 5.56267 90.3964 5.41192C90.3777 5.35579 90.3628 5.29845 90.3518 5.24029C90.3488 5.02404 90.3467 4.80627 90.3455 4.58697C90.3421 4.04235 90.3442 3.50459 90.3518 2.9737H91.3696V5.08583C91.367 5.0948 91.367 5.10432 91.3696 5.11329C91.3867 5.15963 91.4748 5.1705 91.5269 5.15963C91.5471 5.15625 91.5665 5.14906 91.5841 5.13846C91.5958 5.13168 91.6064 5.1232 91.6155 5.11329C91.6419 5.0864 92.7025 4.18194 94.3724 2.75745C94.2935 2.69224 94.1831 2.60356 94.0469 2.50288C92.9703 1.70826 91.6968 1.22319 90.3644 1.10013L90.1859 1.08583C90.1459 1.08583 90.0406 1.0761 89.8999 1.0721C89.7986 1.06867 89.6968 1.06695 89.5566 1.06867V10.8078H97.0452V9.3015C96.786 9.30551 96.5521 9.30837 96.345 9.31009C96.2288 9.31123 95.877 9.31466 95.5532 9.31466Z" fill="#02B4DF"/>
<path d="M94.9422 8.23117C94.9381 8.23887 94.9367 8.24774 94.9382 8.25634C94.9422 8.27179 94.96 8.28037 94.9714 8.28552C94.9997 8.29681 95.0305 8.30037 95.0606 8.29581L97.0475 8.28266C97.0423 8.01549 97.0229 7.77694 96.9989 7.57327C96.9697 7.3227 96.9319 7.11561 96.9016 6.96572C96.8661 6.78952 96.8278 6.63506 96.7929 6.50806C96.0784 7.16481 94.9588 8.1997 94.9422 8.23117Z" fill="#02B4DF"/>
<path d="M94.3404 26.5773L93.4457 27.3879C93.0378 27.7581 92.6842 28.0784 92.3976 28.337C92.5532 28.4858 92.7843 28.7049 93.0658 28.9697L93.4811 29.3582C94.2248 30.0493 94.7746 30.5441 95.0017 30.7501C95.4966 31.1974 96.1739 31.8187 97.0469 32.6568V24.1105L95.7002 25.3399C95.2042 25.7924 94.8112 26.1499 94.3404 26.5773Z" fill="#502390"/>
<path d="M95.746 12.3787C95.6802 12.3787 95.6144 12.3787 95.5481 12.3787C95.3639 12.3688 95.1793 12.3713 94.9954 12.3862H94.9886C94.9674 12.3902 94.9314 12.3999 94.9285 12.4165C94.9256 12.4331 94.9354 12.4354 94.9394 12.4417C94.9458 12.4502 94.9537 12.4573 94.9628 12.4628L95.1104 12.6001C95.5597 13.0395 96.0309 13.4804 96.524 13.9228C96.702 14.0824 96.8673 14.2208 97.0469 14.3747V12.3724C97.0423 12.3753 95.9434 12.3816 95.746 12.3787Z" fill="#502390"/>
<path d="M97.0469 11.3564V10.8077H89.5583V32.8998H95.7528C95.0246 32.2134 94.2917 31.516 93.5549 30.8312C93.3055 30.6024 93.0557 30.3716 92.8055 30.139C92.7855 30.1207 92.6338 29.9811 92.4256 29.7894C92.2065 29.5869 92.0252 29.4193 91.9004 29.3032C91.853 29.2545 91.8123 29.2174 91.786 29.1922C91.7288 29.1418 91.7088 29.1275 91.6716 29.0881C91.6361 29.0526 91.6036 29.0144 91.5744 28.9736C91.5077 28.8869 91.4546 28.7904 91.417 28.6876C91.3606 28.5303 91.3443 28.3614 91.3695 28.1962C91.4005 28.0051 91.4823 27.8259 91.6064 27.6773C91.6392 27.6385 91.6745 27.602 91.7122 27.568C92.2334 27.1041 92.7895 26.6487 93.2763 26.1596C93.3633 26.0726 93.4371 25.9994 93.5051 25.9347C93.9285 25.5188 94.0417 25.4536 95.1739 24.421C95.9102 23.7494 96.6041 23.1052 96.8015 22.9233L97.052 22.6893V19.6596L93.5932 22.8632L92.9754 23.4353C92.7666 23.6281 92.6447 23.7276 92.4863 23.8884C92.4714 23.9039 92.4096 23.9662 92.3215 24.0423C92.2464 24.1106 92.1648 24.1714 92.0778 24.2236C91.8971 24.3297 91.6905 24.3834 91.4811 24.3787C91.4491 24.3787 91.4176 24.3787 91.3856 24.3735C91.2541 24.3631 91.125 24.3324 91.0028 24.2826C90.9702 24.2683 90.9342 24.2494 90.9342 24.2494C90.8662 24.2155 90.8013 24.1757 90.7403 24.1304C90.6549 24.0658 90.5799 23.9887 90.5177 23.9016C90.4107 23.7542 90.345 23.581 90.3272 23.3998C90.3218 23.3382 90.3218 23.2762 90.3272 23.2145C90.3604 22.7992 90.3764 17.8106 90.361 16.8644C90.3552 16.4897 90.3861 16.1149 90.3673 15.7408C90.3582 15.571 90.3872 15.4014 90.4519 15.2442C90.5012 15.1294 90.5699 15.0239 90.655 14.9325C90.7886 14.7938 90.9535 14.6892 91.1359 14.6276C91.3183 14.566 91.5128 14.5491 91.7031 14.5783C91.7451 14.5845 91.7867 14.5929 91.8278 14.6035C92.0498 14.6607 92.2014 14.7751 92.3524 14.8895C92.3896 14.9176 92.4542 14.9805 92.5852 15.0921C92.6693 15.1641 92.7322 15.2156 92.7568 15.2368C92.9022 15.3575 93.0429 15.4788 93.1779 15.5955L93.2586 15.6653C93.5028 15.8752 94.2088 16.4788 95.1882 17.3169C95.0829 17.4416 94.9767 17.5665 94.8695 17.6916C94.7528 17.8281 94.6363 17.9639 94.52 18.0989V18.1018L93.1825 16.9525L91.6321 15.6264C91.6042 15.6081 91.5721 15.5973 91.5389 15.5949C91.5062 15.5937 91.4739 15.6012 91.4451 15.6167C91.4328 15.6234 91.4214 15.6316 91.4113 15.6413C91.4151 18.1024 91.401 20.5717 91.369 23.0492C91.369 23.1035 91.3661 23.2437 91.3655 23.2974C91.3793 23.3135 91.3965 23.3262 91.4159 23.3346C91.4342 23.3416 91.4535 23.3453 91.4731 23.3455H91.4931C91.5209 23.3455 91.5484 23.3396 91.5738 23.3283C91.6053 23.3137 91.632 23.2905 91.651 23.2614C92.4365 22.548 93.0686 21.9662 93.4931 21.5738L93.5503 21.5228C94.3118 20.8152 94.3936 20.7317 95.2357 19.9502C95.9027 19.3306 96.1104 19.1418 96.7803 18.52C96.8947 18.4136 96.9851 18.3278 97.0663 18.254V15.8421L95.5652 14.4393L94.1659 13.1321C94.1183 13.0718 94.0755 13.0079 94.0377 12.941C93.9783 12.8454 93.9348 12.7406 93.909 12.631C93.8844 12.5044 93.8879 12.3739 93.9193 12.2488C93.9559 12.0772 94.0314 11.9163 94.1401 11.7786C94.31 11.5728 94.5452 11.4314 94.8066 11.3781C94.8438 11.3701 94.8736 11.3655 94.8924 11.3627L97.0663 11.3546L97.0469 11.3564Z" fill="#502390"/>
<path d="M97.0469 32.6574V24.1116C97.6058 23.5967 98.2483 22.9966 98.9628 22.3381V22.4177C98.9159 25.7769 98.9308 27.2804 98.9628 27.9669V29.218C98.9628 29.2535 98.9588 29.2895 98.9577 29.325C98.9394 29.7422 98.892 30.1575 98.8158 30.5681C98.6309 31.5456 98.2714 32.4818 97.7546 33.3318L97.0469 32.6574Z" fill="#9C50BC"/>
<path d="M97.0469 10.8077V18.2551C97.2672 18.0263 98.6573 16.7677 98.9628 16.4914V10.8077H97.0469Z" fill="#9C50BC"/>
<path d="M97.1024 34.1711C96.6877 34.6819 96.2148 35.1427 95.6933 35.5441C95.183 35.9406 94.6279 36.2758 94.0395 36.5429C93.6229 36.7301 93.1911 36.8813 92.7488 36.9949C92.3684 37.094 91.9812 37.1654 91.5904 37.2083C91.0355 37.2706 90.5738 37.2655 90.0326 37.2598C89.8083 37.2598 89.6813 37.2517 89.5572 37.246V32.8982H95.7511L97.1024 34.1711Z" fill="#9C50BC"/>
<path d="M97.0469 19.659V22.6877C97.4256 22.3358 97.7866 22.0012 98.2878 21.5498C98.5738 21.2929 98.8078 21.0841 98.9628 20.9468V17.8633C98.2483 18.528 97.6121 19.1333 97.0469 19.659Z" fill="#9C50BC"/>
</svg>
