<svg width="32" height="32" viewBox="0 0 32 32" fill="none" xmlns="http://www.w3.org/2000/svg">
<rect width="32" height="32" rx="6" fill="#F1F1F1"/>
<rect width="16" height="16" transform="translate(8 8)" fill="#F1F1F1"/>
<path d="M22 12.875C21.1712 12.875 20.3763 12.5458 19.7903 11.9597C19.2042 11.3737 18.875 10.5788 18.875 9.75C18.875 9.65054 18.8355 9.55516 18.7652 9.48483C18.6948 9.41451 18.5995 9.375 18.5 9.375H16C15.9005 9.375 15.8052 9.41451 15.7348 9.48483C15.6645 9.55516 15.625 9.65054 15.625 9.75V17.75C15.6249 17.9961 15.5587 18.2377 15.4334 18.4495C15.3081 18.6614 15.1282 18.8357 14.9125 18.9543C14.6969 19.0729 14.4533 19.1314 14.2073 19.1238C13.9613 19.1161 13.7218 19.0426 13.5139 18.9108C13.3061 18.7791 13.1373 18.5939 13.0254 18.3747C12.9135 18.1555 12.8624 17.9103 12.8776 17.6646C12.8928 17.419 12.9736 17.1819 13.1117 16.9781C13.2497 16.7744 13.44 16.6114 13.6625 16.5063C13.7261 16.4757 13.7797 16.4278 13.8173 16.3681C13.8549 16.3084 13.8749 16.2393 13.875 16.1687V13.5687C13.8748 13.5135 13.8627 13.4589 13.8393 13.4088C13.816 13.3587 13.782 13.3143 13.7398 13.2786C13.6976 13.243 13.6482 13.2169 13.5949 13.2022C13.5416 13.1876 13.4858 13.1847 13.4312 13.1937C12.5656 13.3495 11.7623 13.7488 11.1156 14.3448C10.4688 14.9409 10.0055 15.709 9.7798 16.5591C9.55415 17.4092 9.57558 18.306 9.84157 19.1444C10.1076 19.9827 10.6071 20.7279 11.2815 21.2924C11.956 21.8569 12.7775 22.2174 13.6496 22.3316C14.5216 22.4457 15.4082 22.3089 16.2053 21.9371C17.0024 21.5652 17.6769 20.9738 18.1497 20.2322C18.6226 19.4906 18.8742 18.6295 18.875 17.75V15.3063C19.8281 15.8453 20.905 16.1275 22 16.125C22.0995 16.125 22.1948 16.0855 22.2652 16.0152C22.3355 15.9448 22.375 15.8495 22.375 15.75V13.25C22.375 13.1505 22.3355 13.0552 22.2652 12.9848C22.1948 12.9145 22.0995 12.875 22 12.875ZM21.625 15.3625C20.5772 15.2958 19.5696 14.934 18.7187 14.3187C18.6632 14.2786 18.5977 14.2545 18.5294 14.249C18.461 14.2435 18.3925 14.2568 18.3312 14.2875C18.2697 14.32 18.2181 14.3686 18.1818 14.428C18.1455 14.4873 18.1259 14.5554 18.125 14.625V17.75C18.1242 18.4677 17.9241 19.171 17.547 19.7816C17.1699 20.3923 16.6306 20.8862 15.9893 21.2083C15.348 21.5304 14.6298 21.6681 13.9149 21.6061C13.1999 21.544 12.5162 21.2846 11.94 20.8568C11.3638 20.4289 10.9177 19.8495 10.6515 19.183C10.3852 18.5165 10.3093 17.7892 10.4322 17.0822C10.5551 16.3751 10.8719 15.716 11.3474 15.1784C11.8228 14.6408 12.4382 14.2459 13.125 14.0375V15.95C12.8111 16.1459 12.5537 16.4204 12.3785 16.7463C12.2032 17.0722 12.1161 17.4382 12.1257 17.8081C12.1354 18.1781 12.2414 18.539 12.4334 18.8554C12.6254 19.1717 12.8967 19.4324 13.2204 19.6117C13.5441 19.791 13.9091 19.8826 14.2791 19.8776C14.6491 19.8725 15.0114 19.7709 15.33 19.5828C15.6487 19.3948 15.9128 19.1267 16.096 18.8053C16.2793 18.4838 16.3755 18.12 16.375 17.75V10.125H18.1437C18.2308 11.0188 18.6255 11.8546 19.2605 12.4895C19.8954 13.1245 20.7312 13.5192 21.625 13.6062V15.3625Z" fill="black" stroke="black" stroke-width="0.4"/>
</svg>
